<?xml version="1.0" standalone="no"?>
<!DOCTYPE svg PUBLIC "-//W3C//DTD SVG 20010904//EN"
 "http://www.w3.org/TR/2001/REC-SVG-20010904/DTD/svg10.dtd">
<svg version="1.0" xmlns="http://www.w3.org/2000/svg"
 width="4096.000000pt" height="4096.000000pt" viewBox="0 0 4096.000000 4096.000000"
 preserveAspectRatio="xMidYMid meet">
<metadata>
Created by potrace 1.14, written by Peter Selinger 2001-2017
</metadata>
<g transform="translate(0.000000,4096.000000) scale(0.100000,-0.100000)"
fill="#000000" stroke="none">
<path d="M32180 36316 c10 -13 31 -20 103 -31 l32 -6 -35 19 c-45 25 -117 37
-100 18z"/>
<path d="M32330 36271 c0 -4 20 -15 45 -25 25 -11 45 -23 45 -28 0 -4 11 -8
25 -8 14 0 34 -4 45 -10 11 -5 29 -14 40 -20 11 -5 26 -10 34 -10 8 0 16 -6
19 -13 2 -6 22 -18 43 -26 62 -21 140 -60 162 -82 12 -10 29 -19 38 -19 25 0
75 -45 63 -57 -7 -7 -2 -9 15 -6 14 3 32 -1 40 -8 9 -8 23 -20 31 -28 30 -25
307 -162 319 -157 6 3 1 8 -11 11 -13 4 -23 10 -23 14 0 4 -15 12 -34 19 -18
7 -61 30 -95 52 -34 22 -65 40 -70 40 -4 0 -29 16 -54 35 -25 19 -48 35 -50
35 -3 0 -48 28 -100 63 -51 34 -114 72 -138 84 -98 49 -204 94 -248 105 -25 6
-55 15 -65 21 -30 15 -76 26 -76 18z"/>
<path d="M33360 35740 c8 -5 20 -10 25 -10 6 0 3 5 -5 10 -8 5 -19 10 -25 10
-5 0 -3 -5 5 -10z"/>
<path d="M33628 35643 c7 -3 16 -2 19 1 4 3 -2 6 -13 5 -11 0 -14 -3 -6 -6z"/>
<path d="M33855 35582 c11 -5 43 -12 70 -15 34 -5 43 -4 29 2 -12 5 -43 12
-70 15 -32 4 -42 3 -29 -2z"/>
<path d="M34164 35505 c11 -8 31 -15 45 -14 26 1 26 1 -4 14 -42 19 -66 19
-41 0z"/>
<path d="M26364 34837 c-109 -65 -177 -111 -194 -132 -13 -16 0 -21 16 -6 5 5
38 25 74 44 97 51 253 137 259 142 2 3 -11 5 -30 5 -24 0 -63 -16 -125 -53z"/>
<path d="M29990 34869 c0 -5 8 -12 18 -15 36 -12 169 -67 227 -94 33 -16 85
-39 115 -53 129 -57 164 -73 330 -150 96 -44 285 -137 420 -206 391 -200 538
-271 561 -271 6 0 39 -13 73 -29 33 -16 75 -33 91 -37 57 -14 9 22 -67 50 -39
15 -83 35 -97 45 -14 9 -42 24 -61 31 -43 17 -214 101 -335 165 -49 26 -112
58 -140 71 -27 13 -62 31 -77 39 -69 37 -92 49 -243 121 -187 90 -336 157
-421 189 -33 12 -69 27 -80 33 -18 9 -180 72 -271 105 -24 8 -43 11 -43 6z"/>
<path d="M28482 34748 c-40 -33 -62 -66 -62 -93 0 -8 4 -15 8 -15 17 0 112
103 112 121 0 27 -12 24 -58 -13z"/>
<path d="M35855 34690 c19 -21 45 -27 45 -10 0 6 -12 15 -26 20 -36 14 -39 13
-19 -10z"/>
<path d="M36577 34473 c-11 -10 14 -33 37 -33 28 0 50 15 42 29 -8 12 -68 15
-79 4z"/>
<path d="M38098 34108 c9 -9 15 -9 24 0 9 9 7 12 -12 12 -19 0 -21 -3 -12 -12z"/>
<path d="M36350 33996 c0 -19 61 -56 94 -56 50 0 20 42 -42 60 -48 13 -52 13
-52 -4z"/>
<path d="M27060 33265 c0 -11 5 -27 10 -35 8 -12 10 -12 10 5 0 11 -5 27 -10
35 -8 12 -10 12 -10 -5z"/>
<path d="M34610 33272 c0 -13 63 -32 101 -31 32 0 31 1 -21 19 -60 21 -80 24
-80 12z"/>
<path d="M34885 33200 c27 -12 43 -12 25 0 -8 5 -22 9 -30 9 -10 0 -8 -3 5 -9z"/>
<path d="M34941 33186 c10 -9 174 -67 299 -106 177 -54 246 -77 297 -101 24
-10 47 -19 53 -19 5 0 34 -11 64 -25 30 -14 58 -25 61 -25 4 0 21 -6 38 -14
40 -16 159 -56 170 -56 18 0 -4 18 -30 25 -16 3 -61 22 -101 41 -41 19 -78 34
-84 34 -5 0 -40 14 -76 31 -37 17 -110 46 -163 64 -52 18 -104 37 -115 43 -10
5 -48 17 -84 25 -196 47 -245 60 -275 73 -32 13 -64 19 -54 10z"/>
<path d="M35985 32811 c58 -27 85 -34 85 -22 0 6 -23 17 -52 26 -69 20 -82 19
-33 -4z"/>
<path d="M36105 32776 c46 -21 78 -30 71 -18 -3 5 -18 12 -33 15 -16 3 -37 8
-48 11 -11 4 -6 0 10 -8z"/>
<path d="M31985 32688 c-15 -24 -54 -88 -88 -143 -34 -55 -75 -118 -90 -140
-15 -22 -40 -59 -55 -82 -15 -23 -73 -94 -130 -156 -124 -139 -146 -166 -138
-174 7 -7 167 157 248 255 94 113 255 352 264 391 4 14 13 37 21 50 10 15 11
27 5 33 -6 6 -19 -6 -37 -34z"/>
<path d="M36330 32702 c104 -35 198 -57 206 -49 3 3 -11 9 -32 13 -22 4 -48
13 -59 20 -11 8 -32 14 -48 14 -16 0 -36 4 -45 9 -9 5 -37 11 -62 15 -35 5
-27 0 40 -22z"/>
<path d="M36708 32603 c6 -2 18 -2 25 0 6 3 1 5 -13 5 -14 0 -19 -2 -12 -5z"/>
<path d="M31218 32402 c-10 -2 -18 -8 -18 -13 0 -11 11 -11 30 1 18 11 11 18
-12 12z"/>
<path d="M31112 32340 c-18 -11 -39 -20 -46 -20 -17 0 -41 -28 -32 -37 3 -3
14 1 23 10 10 8 30 18 45 22 27 7 55 31 46 40 -2 2 -18 -5 -36 -15z"/>
<path d="M30933 32241 c-67 -36 -152 -94 -153 -103 0 -16 20 -7 64 27 25 19
68 46 95 59 46 24 73 47 54 46 -4 -1 -31 -13 -60 -29z"/>
<path d="M30735 32110 c-11 -5 -40 -27 -65 -50 -46 -41 -30 -37 47 12 59 38
70 61 18 38z"/>
<path d="M20660 32085 c-15 -18 -10 -45 13 -59 13 -8 24 -7 44 4 38 21 39 36
4 54 -37 20 -45 20 -61 1z"/>
<path d="M31455 31980 c-3 -5 -1 -10 4 -10 6 0 11 5 11 10 0 6 -2 10 -4 10 -3
0 -8 -4 -11 -10z"/>
<path d="M12999 31824 c-9 -11 -27 -40 -42 -65 -14 -25 -45 -70 -69 -99 -24
-29 -56 -70 -73 -91 -16 -21 -67 -82 -112 -136 -44 -54 -130 -157 -190 -229
-108 -131 -251 -299 -328 -384 -45 -51 -70 -82 -217 -265 -57 -71 -129 -166
-161 -210 -31 -44 -83 -116 -116 -160 -32 -44 -91 -127 -131 -185 -73 -106
-116 -154 -131 -144 -8 5 -2 31 13 50 10 13 22 68 48 224 58 337 121 518 247
706 90 135 164 264 158 274 -11 17 -33 11 -40 -11 -11 -33 -102 -169 -139
-209 -19 -19 -56 -65 -82 -101 -27 -36 -74 -99 -106 -140 -59 -78 -207 -361
-317 -606 -70 -159 -124 -240 -255 -386 -67 -74 -101 -104 -140 -122 -29 -13
-63 -38 -79 -59 -15 -20 -34 -36 -40 -36 -15 0 -83 -67 -76 -74 3 -3 21 -6 41
-8 29 -1 42 4 61 24 13 14 27 33 30 42 10 25 27 19 27 -10 0 -19 -7 -28 -29
-37 -23 -8 -30 -19 -35 -49 -4 -23 -14 -41 -26 -48 -38 -20 -20 -27 20 -8 45
22 70 18 70 -11 0 -24 -7 -29 -55 -37 -25 -4 -40 -1 -45 7 -6 9 -14 6 -31 -10
-13 -12 -40 -26 -61 -31 -32 -9 -38 -16 -44 -46 -6 -35 -28 -55 -51 -47 -7 3
-13 11 -13 20 0 10 -6 12 -22 8 -30 -9 -48 -33 -48 -62 0 -21 4 -23 49 -23 35
0 51 -4 55 -16 9 -24 8 -27 -18 -22 -18 4 -23 1 -19 -9 4 -9 15 -13 30 -10 58
11 55 -86 -5 -130 -20 -15 -41 -34 -45 -40 -4 -7 -16 -13 -26 -13 -11 0 -22
-7 -25 -16 -10 -26 12 -53 47 -56 32 -3 32 -4 29 -50 -2 -25 2 -49 8 -53 13
-8 13 -82 0 -90 -6 -4 -8 -16 -4 -27 4 -14 2 -18 -5 -14 -6 4 -11 15 -11 25 0
38 -62 65 -97 43 -7 -4 -19 -28 -28 -52 -9 -25 -29 -70 -45 -101 -16 -30 -38
-82 -49 -115 -11 -32 -33 -93 -50 -136 l-31 -76 0 -199 c1 -109 5 -229 10
-267 9 -75 76 -235 97 -236 15 0 10 37 -21 135 -19 64 -21 92 -21 335 l1 265
31 70 c17 39 36 89 42 112 27 101 73 173 110 173 14 0 41 4 59 9 27 8 32 7 32
-8 0 -19 22 -71 30 -71 3 0 4 -28 3 -62 -2 -45 3 -70 16 -92 16 -27 18 -51 16
-169 -2 -120 0 -141 15 -155 27 -26 40 -57 30 -72 -5 -8 -4 -26 4 -44 7 -17
13 -60 13 -95 0 -37 5 -66 12 -70 12 -8 5 -41 -9 -41 -10 0 -21 -52 -22 -105
-1 -22 -8 -45 -16 -51 -22 -16 -7 -44 23 -44 31 0 31 -5 1 -41 -28 -33 -34
-104 -10 -113 18 -7 18 -42 0 -49 -10 -4 -14 -19 -12 -50 2 -25 6 -49 9 -54 3
-5 0 -22 -8 -37 -13 -24 -13 -31 1 -58 8 -16 13 -35 11 -42 -7 -17 19 -134 33
-151 12 -14 11 -32 -6 -98 -5 -20 0 -42 15 -72 15 -29 20 -52 15 -70 -4 -17
-1 -32 9 -43 8 -9 18 -35 22 -57 4 -22 15 -56 25 -75 59 -115 91 -222 69 -236
-8 -4 -15 -2 -17 6 -3 7 -22 32 -42 54 -38 42 -73 100 -65 108 3 2 -12 22 -32
44 -20 21 -46 60 -58 86 -12 26 -25 45 -28 42 -6 -6 17 -94 33 -129 5 -11 32
-78 59 -150 27 -71 86 -208 131 -303 45 -95 105 -230 134 -300 30 -70 77 -181
106 -247 76 -176 133 -331 250 -675 34 -102 77 -214 95 -250 18 -36 40 -78 48
-95 8 -16 25 -52 37 -80 12 -27 37 -63 56 -78 40 -34 84 -158 64 -182 -6 -7
-14 -40 -17 -72 -8 -71 -47 -155 -71 -151 -18 3 -18 3 -43 -153 -11 -66 -10
-81 4 -118 9 -23 17 -59 17 -81 0 -21 5 -50 11 -64 9 -19 9 -53 -1 -136 -33
-299 -170 -596 -316 -686 -35 -21 -35 -21 -104 -3 -38 10 -85 30 -106 44 -20
14 -55 30 -78 36 -22 6 -87 26 -144 45 -56 19 -123 34 -147 34 -82 0 -74 26
55 175 183 213 246 305 361 536 114 229 170 364 199 479 10 41 26 100 34 130
30 103 46 185 45 235 l0 50 -13 -45 c-7 -25 -23 -90 -36 -145 -22 -95 -48
-184 -75 -250 -7 -16 -18 -50 -25 -75 -8 -25 -28 -74 -45 -110 -18 -36 -36
-77 -40 -90 -4 -14 -32 -70 -63 -125 -30 -55 -68 -124 -84 -154 -16 -29 -55
-87 -86 -129 -31 -41 -64 -84 -72 -96 -8 -12 -51 -59 -95 -104 -103 -106 -130
-140 -154 -193 -22 -52 -66 -96 -101 -101 -21 -2 -29 -14 -50 -75 -28 -81 -42
-99 -114 -148 -28 -19 -69 -48 -91 -65 -22 -16 -47 -33 -55 -37 -8 -5 -49 -28
-90 -53 -100 -59 -189 -107 -345 -186 -175 -89 -442 -236 -540 -297 -44 -27
-93 -57 -110 -67 -16 -10 -65 -39 -107 -66 -43 -27 -162 -102 -265 -167 -103
-65 -215 -137 -248 -161 -33 -23 -132 -91 -220 -151 -161 -109 -280 -193 -345
-243 -254 -195 -483 -426 -666 -672 -67 -89 -413 -606 -553 -825 -195 -303
-351 -554 -401 -640 -10 -16 -41 -70 -70 -120 -29 -49 -70 -124 -92 -165 -23
-41 -51 -93 -64 -116 -39 -68 -239 -474 -277 -559 -50 -116 -150 -355 -264
-635 -19 -47 -40 -98 -48 -115 -88 -189 -188 -455 -219 -585 -46 -191 -76
-501 -106 -1100 -5 -107 -16 -224 -25 -260 -16 -74 -20 -231 -6 -293 6 -23 12
-96 14 -161 5 -139 0 -138 -52 5 -19 52 -49 125 -68 163 -18 38 -33 75 -33 82
0 17 -48 49 -58 40 -4 -4 -9 -112 -10 -239 -4 -220 6 -410 30 -577 11 -78 18
-326 10 -348 -3 -9 -12 -8 -36 7 -17 10 -48 24 -69 31 l-37 12 0 61 c-1 34
-10 118 -20 187 -52 335 -85 853 -75 1180 16 511 19 555 51 755 18 119 59 328
78 405 13 55 24 93 73 265 26 90 146 434 179 510 9 22 50 135 90 250 103 298
111 320 150 398 19 38 34 74 34 81 0 6 17 45 39 86 21 41 42 86 46 100 11 37
217 458 342 700 76 145 81 154 107 189 14 19 26 38 26 42 0 11 83 150 119 199
38 52 75 129 67 137 -3 4 -6 2 -6 -4 0 -6 -15 -26 -34 -46 -18 -19 -55 -73
-81 -119 -27 -46 -56 -92 -65 -103 -25 -29 -134 -213 -173 -292 -19 -37 -64
-126 -100 -198 -76 -150 -157 -321 -157 -330 0 -4 -8 -19 -19 -33 -10 -15 -22
-38 -26 -52 -4 -14 -22 -56 -40 -95 -18 -38 -45 -97 -60 -130 -15 -33 -35 -78
-45 -100 -57 -126 -97 -227 -105 -265 -4 -19 -11 -39 -15 -45 -4 -5 -24 -62
-45 -125 -20 -63 -47 -140 -60 -170 -13 -30 -37 -100 -54 -155 -18 -55 -36
-109 -41 -120 -21 -48 -48 -133 -55 -174 -4 -24 -18 -66 -31 -95 -13 -28 -30
-85 -39 -126 -8 -41 -22 -95 -30 -120 -25 -81 -88 -343 -101 -426 -7 -44 -17
-99 -23 -121 -12 -42 -19 -105 -47 -413 -23 -239 -23 -669 -1 -965 53 -697
103 -1132 141 -1204 11 -20 15 -43 12 -57 -4 -14 2 -44 13 -72 11 -26 22 -78
25 -117 3 -42 19 -109 40 -170 20 -55 36 -114 36 -131 0 -17 8 -57 19 -90 10
-32 30 -102 45 -154 15 -52 33 -111 41 -130 7 -19 25 -69 40 -110 16 -41 36
-93 46 -115 23 -53 49 -132 49 -151 0 -18 29 -64 41 -64 4 0 11 16 15 35 7 41
17 43 49 10 30 -29 32 -70 5 -87 -11 -7 -20 -19 -20 -27 0 -7 24 -64 54 -125
30 -61 60 -133 67 -161 28 -117 184 -462 254 -565 58 -85 124 -201 215 -375
45 -88 100 -182 120 -210 37 -48 60 -102 75 -175 4 -19 15 -46 25 -60 10 -14
21 -36 25 -50 16 -54 129 -266 168 -318 72 -94 75 -99 32 -64 -71 58 -150 125
-232 197 -44 39 -102 88 -129 110 -113 93 -252 223 -464 434 -124 123 -299
288 -390 366 -91 78 -232 207 -315 287 -82 80 -190 183 -239 229 -48 46 -114
111 -146 144 -238 248 -546 550 -625 614 -17 13 -56 48 -88 78 -32 29 -67 58
-78 64 -20 10 -20 10 -3 -23 l17 -33 -26 24 c-17 15 -32 21 -43 17 -10 -4 -25
1 -37 11 -15 13 -21 15 -24 6 -7 -18 -33 -16 -33 3 0 8 -5 12 -11 9 -6 -4 -13
2 -16 13 -3 11 -12 21 -21 21 -30 1 -57 7 -72 16 -17 10 -160 16 -160 6 0 -7
-4 -8 -87 -17 -40 -5 -58 -13 -82 -37 -16 -18 -36 -37 -43 -44 -7 -7 -18 -18
-25 -25 -27 -29 -42 -38 -48 -28 -9 15 -41 12 -55 -5 -9 -10 -9 -15 -1 -15 6
0 11 -7 11 -17 0 -15 -1 -15 -18 0 -12 11 -22 13 -32 7 -8 -5 -25 -10 -36 -10
-12 0 -25 -7 -28 -16 -4 -11 -15 -14 -36 -10 -37 5 -64 -18 -57 -48 3 -12 10
-39 16 -61 6 -22 15 -76 21 -120 6 -44 24 -125 39 -180 16 -55 41 -145 56
-200 43 -157 152 -419 301 -722 338 -687 479 -995 611 -1333 56 -143 198 -454
226 -497 15 -22 58 -52 137 -95 178 -97 286 -197 487 -453 197 -251 336 -478
480 -785 12 -25 40 -80 62 -124 23 -43 41 -86 41 -96 0 -33 21 -33 33 -1 21
56 80 27 92 -46 6 -37 63 -234 111 -383 13 -41 37 -118 53 -170 82 -266 156
-450 361 -900 33 -74 77 -171 97 -215 20 -44 69 -152 110 -240 41 -88 87 -189
103 -225 103 -232 155 -345 245 -535 90 -190 118 -252 142 -315 14 -36 43
-103 65 -150 22 -47 65 -137 95 -200 58 -122 211 -477 256 -595 159 -419 179
-466 273 -645 107 -205 157 -310 150 -318 -7 -6 -55 46 -56 61 0 4 -36 56 -80
115 -136 183 -195 265 -240 332 -24 36 -60 85 -80 110 -35 44 -175 242 -271
385 -85 127 -152 239 -169 280 -36 92 -127 250 -205 356 -22 30 -67 95 -101
146 -85 125 -287 378 -292 364 -2 -7 11 -31 30 -54 38 -47 162 -220 217 -303
20 -29 79 -117 132 -196 119 -176 152 -236 174 -313 31 -110 111 -259 217
-405 18 -25 80 -110 138 -190 395 -541 669 -971 735 -1150 9 -25 28 -81 42
-125 77 -244 110 -294 363 -570 67 -73 85 -95 220 -275 44 -58 96 -127 117
-154 21 -27 61 -81 89 -120 27 -40 86 -119 130 -177 43 -58 160 -215 259 -349
99 -134 204 -269 233 -301 28 -33 52 -63 52 -69 0 -7 208 -10 615 -10 338 0
615 4 615 8 0 15 -197 303 -284 416 -85 110 -184 243 -268 361 -39 55 -108
151 -152 213 -45 61 -115 160 -156 218 -272 382 -351 482 -609 778 -301 344
-353 426 -521 821 -88 206 -157 346 -330 670 -204 382 -460 885 -553 1085 -72
156 -102 220 -179 390 -98 217 -374 768 -500 1000 -67 123 -132 236 -143 250
-14 17 -75 129 -115 210 -34 68 -80 195 -80 219 0 10 -18 54 -40 97 -64 127
-55 134 45 34 38 -39 74 -70 80 -70 16 0 154 -145 229 -240 37 -47 84 -107
106 -135 61 -78 211 -261 296 -360 98 -115 252 -311 376 -479 181 -243 295
-372 567 -639 119 -118 157 -161 181 -211 l31 -62 -3 -270 c-3 -277 -3 -277
39 -371 14 -33 103 -148 164 -213 18 -19 55 -64 83 -100 48 -62 102 -127 246
-300 35 -41 94 -106 131 -145 119 -124 256 -307 418 -564 91 -142 115 -169
186 -202 34 -17 78 -47 97 -67 67 -72 118 -237 103 -338 -4 -29 0 -56 14 -90
47 -121 90 -174 366 -454 149 -151 327 -336 396 -410 253 -271 240 -260 297
-260 42 0 52 -4 66 -25 23 -35 20 -57 -14 -100 -35 -45 -37 -71 -10 -157 11
-34 20 -73 20 -85 0 -12 18 -65 40 -119 39 -97 77 -162 148 -257 l36 -47 7387
0 c6049 0 7388 2 7392 13 3 7 20 18 38 24 46 15 365 141 649 256 129 52 280
112 335 132 55 20 129 47 165 60 139 52 427 134 465 132 59 -2 75 3 75 24 0
29 -18 58 -63 104 -22 22 -61 65 -86 95 -47 55 -90 103 -136 150 -34 35 -33
55 3 45 62 -17 115 -8 220 39 269 121 333 154 712 372 275 157 531 292 695
367 281 128 284 129 313 123 24 -5 31 0 60 44 28 44 36 50 66 50 19 0 38 -5
41 -11 4 -5 18 -15 32 -20 49 -18 161 -89 167 -105 3 -9 -3 -36 -14 -61 -11
-25 -20 -51 -20 -58 0 -7 -15 -35 -34 -62 -99 -144 -116 -239 -137 -776 -6
-178 -8 -413 -3 -613 l7 -324 2581 0 2581 0 3 386 c1 222 6 393 12 403 9 15
17 -510 11 -673 -4 -93 9 -116 65 -116 38 0 44 3 50 24 3 13 4 291 1 617 -4
503 -7 607 -21 679 -32 161 -85 365 -141 545 -69 222 -110 391 -125 515 -7 52
-20 138 -30 190 -29 150 -31 225 -13 432 12 141 17 306 17 613 1 426 -8 579
-40 685 -8 25 -14 89 -14 143 0 93 1 99 27 123 l26 24 -26 28 c-15 16 -42 73
-65 137 -76 213 -132 335 -257 565 -149 275 -396 648 -500 755 -94 97 -145
163 -145 190 0 21 24 59 113 175 19 25 53 81 77 125 23 44 58 108 77 143 25
45 33 70 29 88 -7 28 -26 23 -26 -6 0 -10 -18 -55 -40 -99 -22 -44 -40 -82
-40 -85 0 -8 -99 -154 -140 -206 -78 -101 -124 -150 -140 -150 -9 0 -30 11
-48 23 -58 43 -74 73 -87 163 -7 49 -19 92 -29 103 -9 9 -16 21 -16 26 0 4
-15 29 -34 55 -19 26 -40 65 -46 86 -7 22 -16 157 -20 314 -9 298 -15 329 -95
550 -51 140 -76 225 -96 315 -19 94 -65 257 -93 335 -9 25 -43 127 -76 227
-32 100 -77 219 -98 265 -22 46 -43 94 -47 108 -11 37 -75 161 -100 195 -12
16 -30 48 -39 70 -24 56 -35 76 -113 205 -153 254 -232 389 -275 470 -31 57
-70 111 -121 163 l-75 79 -14 -28 c-29 -61 -172 -47 -174 17 -1 43 -4 49 -19
49 -9 0 -20 -11 -25 -24 -13 -35 -52 -40 -111 -15 -27 12 -54 30 -60 40 -13
25 -54 24 -121 -1 -29 -10 -91 -30 -138 -44 -47 -14 -112 -35 -145 -46 -52
-19 -183 -55 -515 -141 -41 -10 -122 -28 -180 -38 -58 -11 -157 -31 -220 -44
-158 -34 -300 -51 -314 -37 -7 7 -7 16 2 30 17 28 0 26 -85 -9 -39 -16 -86
-32 -104 -36 -19 -4 -81 -22 -139 -40 -204 -63 -251 -76 -443 -125 -156 -39
-218 -50 -309 -54 -145 -6 -225 -23 -503 -105 -16 -5 -61 -18 -100 -29 -38
-11 -144 -44 -235 -73 -91 -28 -226 -69 -300 -91 -74 -21 -178 -52 -230 -68
-309 -95 -387 -119 -595 -185 -126 -40 -257 -80 -290 -90 -33 -9 -71 -21 -85
-25 -14 -5 -126 -41 -250 -80 -124 -39 -234 -75 -245 -80 -20 -9 -139 -52
-385 -139 -246 -88 -538 -211 -573 -242 -41 -37 -645 -329 -901 -436 -33 -13
-129 -58 -214 -99 -85 -41 -163 -74 -174 -74 -30 0 -191 45 -368 104 -272 89
-460 186 -853 441 -54 35 -131 75 -202 105 -11 5 -44 11 -74 15 -29 3 -93 24
-141 46 -80 36 -120 42 -120 18 0 -5 21 -20 48 -33 54 -28 75 -56 66 -90 -4
-18 2 -29 26 -50 27 -22 29 -26 11 -26 -11 0 -22 4 -25 9 -3 5 -21 12 -39 15
-18 3 -68 17 -111 31 -43 14 -94 25 -112 25 -18 0 -36 5 -39 10 -3 6 -20 10
-36 10 -20 0 -28 -4 -23 -11 6 -11 243 -127 358 -175 178 -76 480 -237 604
-323 15 -10 109 -70 210 -132 100 -63 235 -147 300 -187 64 -40 162 -96 217
-124 89 -44 165 -99 165 -119 0 -4 -35 -10 -77 -14 -51 -5 -109 -19 -167 -42
-78 -30 -375 -176 -509 -249 -26 -15 -73 -29 -105 -33 -37 -4 -69 -15 -87 -29
-36 -29 -76 -28 -139 3 -28 13 -77 31 -108 40 -41 11 -78 32 -130 74 -40 32
-84 64 -98 71 -14 7 -89 56 -168 109 -229 154 -281 187 -392 250 -58 33 -143
81 -190 108 -47 26 -99 63 -116 82 l-31 33 -7 157 c-10 213 -29 338 -62 401
-35 66 -43 134 -19 160 13 15 16 29 10 67 -5 42 -3 53 19 82 29 39 32 62 14
94 -7 12 -16 60 -19 107 -12 165 -60 512 -88 650 -37 175 -96 375 -139 471
-11 24 -32 73 -48 109 -15 36 -36 76 -46 89 -10 13 -18 28 -18 34 0 5 -34 61
-75 123 -84 126 -211 274 -301 349 -115 96 -175 159 -206 214 -17 31 -44 67
-59 81 -24 23 -27 30 -22 74 5 39 3 48 -8 44 -8 -2 -20 -17 -27 -31 -14 -30
-26 -34 -41 -14 -44 52 -61 76 -61 82 0 4 -25 60 -56 124 -144 297 -274 589
-297 668 -8 27 -25 72 -37 99 -13 27 -35 85 -50 129 -35 102 -93 258 -115 310
-10 22 -25 67 -35 100 -9 33 -27 83 -39 110 -11 28 -30 79 -40 115 -11 36 -38
110 -61 165 -23 55 -54 132 -70 170 -69 167 -128 300 -192 435 -68 142 -158
344 -158 355 0 9 -88 212 -131 301 -21 45 -39 86 -39 91 0 5 -16 28 -35 50
-59 69 -83 136 -161 439 -30 120 -64 232 -74 249 -41 68 -52 157 -52 400 0
127 5 300 11 385 25 341 31 582 16 640 -10 40 -16 165 -20 455 -3 220 -10 447
-14 505 -8 114 4 160 41 160 19 0 21 -7 18 -53 -1 -15 8 -54 19 -87 12 -33 21
-70 21 -82 0 -16 3 -19 11 -11 20 20 6 142 -23 203 -15 30 -29 65 -33 78 -4
13 -21 40 -38 59 -26 29 -32 45 -33 82 0 51 -20 179 -34 226 -6 17 -13 53 -16
80 -4 28 -15 66 -26 85 -18 31 -68 173 -68 192 0 4 -30 92 -66 195 -96 276
-187 476 -266 588 -16 22 -41 58 -55 80 -15 22 -54 75 -87 118 -34 44 -72 94
-86 112 -184 243 -502 576 -709 740 -62 50 -143 115 -181 145 -81 66 -126 100
-290 223 -409 305 -716 537 -815 617 -61 49 -205 156 -364 268 -68 48 -169
102 -191 102 -10 0 -31 10 -46 23 l-26 23 26 56 c14 30 26 59 26 64 0 5 12 31
26 58 14 26 45 105 68 174 40 121 49 150 76 250 10 38 13 42 43 42 45 -1 177
-14 422 -44 577 -69 741 -59 1119 68 140 48 221 94 312 179 85 80 122 152 140
275 14 99 30 159 57 222 21 47 110 325 136 425 12 44 28 97 37 118 18 48 102
354 115 422 5 28 18 79 29 115 21 69 87 341 115 475 10 44 28 125 40 180 13
55 29 138 35 185 21 160 32 220 41 226 5 3 9 13 9 23 0 26 49 115 85 153 115
124 232 348 286 548 58 216 155 617 170 704 13 77 8 198 -10 236 -18 38 -78
72 -140 79 -31 4 -66 12 -78 19 -12 7 -31 12 -42 12 -12 0 -30 9 -41 20 -11
11 -24 20 -30 20 -5 0 -10 8 -10 18 0 10 -4 22 -9 28 -15 15 -60 194 -71 284
-39 307 -64 552 -57 557 4 3 5 28 2 57 -6 49 -5 53 29 89 26 28 41 37 56 32
15 -5 21 0 26 19 4 17 13 26 25 26 10 0 19 5 19 10 0 13 27 13 32 0 3 -11 38
-21 78 -24 22 -1 25 3 24 29 -2 37 -53 143 -124 255 -54 86 -124 212 -159 285
-19 41 -31 65 -95 192 -58 115 -42 126 43 29 56 -65 335 -478 345 -512 4 -11
18 -32 32 -45 l26 -24 -7 50 c-5 30 -31 97 -66 166 -33 64 -59 119 -59 123 0
3 -10 23 -23 44 -13 20 -41 75 -63 122 -55 121 -138 265 -179 313 -20 23 -34
46 -32 51 6 20 66 18 113 -3 73 -33 124 -26 124 15 0 25 -49 64 -81 64 -16 0
-110 61 -196 126 -23 18 -76 51 -117 74 -66 36 -99 60 -82 60 12 0 118 -45
211 -89 55 -26 123 -53 150 -60 113 -26 386 -71 436 -71 30 0 97 -9 149 -20
117 -24 120 -24 120 -1 0 15 -31 35 -129 84 -141 71 -305 173 -518 321 -35 23
-98 78 -140 122 -43 43 -100 97 -127 119 -55 46 -55 65 0 65 28 0 47 -10 95
-52 33 -29 68 -67 78 -84 18 -31 71 -53 71 -30 0 6 -28 43 -61 81 -33 39 -67
84 -75 102 -17 40 -7 63 59 126 66 65 49 93 -40 68 -20 -6 -46 -6 -66 0 -30 8
-34 12 -29 37 7 37 25 48 107 68 42 10 85 28 107 45 20 16 43 29 50 29 7 0 38
9 68 19 l55 19 -165 -1 c-145 -2 -173 1 -230 20 -36 12 -110 26 -165 33 -116
13 -271 43 -366 71 -37 10 -153 41 -259 68 -185 48 -209 56 -199 66 3 2 68 11
144 19 156 17 196 25 241 49 17 9 51 20 75 26 24 5 70 15 102 22 54 12 77 28
40 30 -313 9 -430 26 -588 88 -44 17 -141 47 -215 66 -146 37 -256 67 -462
126 -27 7 -48 17 -48 21 0 11 15 10 95 -8 229 -53 335 -70 335 -56 0 6 -12 13
-27 15 -27 4 -27 4 -5 12 13 4 21 14 20 23 -4 21 55 49 112 55 37 3 45 8 53
32 7 20 6 30 -4 36 -31 19 -217 7 -393 -26 -28 -6 -36 -4 -36 7 0 13 64 48 88
48 6 0 40 13 74 29 35 15 100 43 145 61 76 30 161 80 136 80 -6 0 -71 -16
-144 -35 -74 -19 -172 -44 -219 -55 -47 -10 -105 -27 -130 -36 -33 -12 -93
-18 -230 -22 -248 -7 -294 -5 -407 18 -66 14 -135 20 -222 20 -144 0 -159 -2
-220 -24 -24 -9 -53 -16 -64 -16 -19 0 -19 2 -7 14 33 31 134 76 172 76 21 0
60 11 86 24 26 13 81 34 122 46 128 37 304 105 457 176 28 13 58 24 65 24 7 0
20 5 28 11 26 18 -66 -1 -180 -36 -135 -42 -383 -91 -530 -105 -126 -12 -255
-29 -455 -59 -71 -11 -150 -23 -175 -26 -113 -17 -357 -68 -475 -100 -227 -62
-259 -72 -320 -94 -62 -23 -254 -81 -267 -81 -54 0 221 234 460 392 125 83
132 88 132 98 0 28 -85 -10 -425 -189 -33 -18 -100 -48 -150 -67 -414 -163
-614 -267 -820 -423 -54 -41 -253 -207 -265 -221 -13 -16 -72 -52 -76 -47 -3
3 -1 15 6 26 6 12 8 21 6 21 -3 0 3 16 15 36 l20 36 -22 19 c-24 21 -55 26
-43 7 4 -7 3 -8 -4 -4 -7 4 -38 -20 -77 -58 -126 -128 -82 -58 94 145 68 79
145 167 171 195 68 71 292 372 375 503 39 61 107 168 153 238 108 165 154 249
150 269 -3 14 -5 14 -19 -2z m2804 -971 c-7 -2 -19 -2 -25 0 -7 3 -2 5 12 5
14 0 19 -2 13 -5z m-3788 -593 c-3 -5 -16 -10 -28 -10 -18 0 -19 2 -7 10 20
13 43 13 35 0z m-55 -34 c0 -2 -7 -9 -15 -16 -13 -11 -14 -10 -9 4 5 14 24 23
24 12z m-59 -57 c-26 -22 -35 -20 -25 5 3 9 16 16 28 16 21 -1 21 -1 -3 -21z
m-76 -69 c-3 -5 -11 -10 -16 -10 -6 0 -7 5 -4 10 3 6 11 10 16 10 6 0 7 -4 4
-10z m-575 -215 c0 -6 -18 -40 -40 -74 -37 -58 -81 -93 -97 -77 -11 11 34 94
60 111 13 8 29 26 35 40 12 25 42 25 42 0z m6250 -11 c0 -9 -5 -14 -12 -12
-18 6 -21 28 -4 28 9 0 16 -7 16 -16z m-82 -21 c-4 -22 -22 -20 -26 1 -2 10 3
16 13 16 10 0 15 -7 13 -17z m180 -59 c4 -31 -27 -40 -52 -14 -18 18 -19 22
-6 30 24 16 55 7 58 -16z m-6513 -144 c-3 -5 -11 -10 -16 -10 -6 0 -7 5 -4 10
3 6 11 10 16 10 6 0 7 -4 4 -10z m415 -2 c0 -7 -5 -20 -10 -28 -8 -12 -10 -9
-10 13 0 15 5 27 10 27 6 0 10 -6 10 -12z m-490 -77 c0 -12 -20 -25 -27 -18
-7 7 6 27 18 27 5 0 9 -4 9 -9z m1116 -426 c-10 -8 -23 -12 -29 -8 -11 7 12
23 33 23 12 -1 11 -4 -4 -15z m-70 -20 c-25 -19 -41 -19 -24 0 7 8 20 14 28
14 11 0 10 -3 -4 -14z m-1458 -27 c-3 -7 -15 -14 -29 -16 -23 -2 -23 -2 -5 13
24 18 39 20 34 3z m-45 -344 c-3 -8 -11 -14 -18 -14 -18 0 -26 25 -12 39 14
14 38 -5 30 -25z m19 -66 c3 -18 8 -41 13 -50 10 -25 -17 -23 -32 2 -13 20 -7
80 7 80 4 0 10 -15 12 -32z m6680 -407 c135 -92 211 -210 291 -456 47 -148 63
-219 97 -455 21 -148 39 -249 91 -513 16 -81 29 -160 29 -175 0 -15 7 -38 16
-50 12 -17 19 -20 34 -12 24 13 106 13 131 0 22 -12 25 -35 7 -46 -20 -13
-311 -21 -427 -13 -107 8 -172 16 -336 45 -49 8 -130 22 -180 29 -49 8 -117
19 -150 24 -33 5 -104 17 -158 25 -113 18 -169 41 -72 31 33 -4 71 -9 85 -11
14 -3 54 -9 90 -13 36 -5 110 -19 165 -31 142 -31 420 -56 430 -39 10 15 7
214 -5 375 -23 320 -59 631 -101 884 -29 177 -47 248 -72 298 -21 40 -67 142
-67 147 0 15 37 -1 102 -44z m-6132 -21 c20 -37 -2 -106 -95 -295 -112 -228
-134 -282 -171 -403 -22 -73 -30 -90 -37 -76 -6 11 -6 28 1 48 5 17 16 55 23
84 7 28 16 52 21 52 4 0 8 14 8 30 0 17 4 30 9 30 6 0 9 8 9 18 -2 26 30 118
72 207 21 44 41 96 45 115 15 80 75 210 97 210 4 0 12 -9 18 -20z m-182 -112
c-7 -78 -76 -172 -100 -137 -12 19 -3 76 16 95 9 8 16 21 16 29 0 12 54 65 67
65 3 0 3 -24 1 -52z m6652 -24 c0 -8 -4 -12 -10 -9 -5 3 -10 13 -10 21 0 8 5
12 10 9 6 -3 10 -13 10 -21z m40 -105 c0 -11 -4 -17 -10 -14 -5 3 -10 13 -10
21 0 8 5 14 10 14 6 0 10 -9 10 -21z m39 -212 c5 -21 6 -47 4 -58 -5 -18 -7
-17 -20 8 -21 41 -36 193 -20 212 10 12 13 1 20 -55 4 -38 11 -86 16 -107z
m-6999 -133 c0 -8 -4 -12 -10 -9 -5 3 -10 10 -10 16 0 5 5 9 10 9 6 0 10 -7
10 -16z m131 -348 c-6 -39 -13 -134 -16 -211 -2 -77 -4 -145 -5 -152 -1 -26
-30 1 -30 27 0 16 -4 30 -9 32 -14 5 -16 130 -2 155 6 12 12 40 13 62 1 23 5
41 10 41 5 0 7 13 3 29 -4 19 -1 34 9 44 9 9 16 22 16 30 0 9 3 24 7 34 14 34
16 -16 4 -91z m4965 -518 c90 -83 114 -121 114 -184 0 -65 -19 -156 -34 -167
-6 -4 -27 -5 -46 -2 -23 4 -42 1 -55 -10 -20 -15 -20 -15 -1 -30 16 -12 17
-17 5 -31 -11 -13 -11 -18 -1 -21 6 -3 12 -10 12 -16 0 -8 -4 -7 -12 1 -18 18
-31 14 -25 -8 4 -16 0 -20 -18 -20 -19 0 -22 -4 -17 -22 3 -12 1 -19 -5 -15
-13 8 -40 -39 -48 -85 -4 -21 -13 -42 -21 -49 -8 -6 -14 -29 -14 -50 0 -22 -4
-39 -8 -39 -14 0 -31 -46 -25 -68 3 -13 -4 -33 -17 -51 -17 -25 -25 -29 -40
-21 -25 14 -27 13 -33 -10 -6 -25 -44 -27 -51 -2 -3 9 -3 -3 0 -28 4 -41 3
-43 -10 -27 -11 14 -16 15 -22 6 -4 -7 -2 -15 5 -17 8 -3 7 -8 -4 -16 -15 -11
-16 -31 -9 -189 4 -97 11 -177 15 -177 5 0 9 -12 9 -27 0 -32 -12 -21 -28 27
-16 50 -34 328 -27 429 24 336 59 500 146 686 65 141 164 285 195 285 7 0 38
-24 70 -52z m-500 -112 c-6 -32 -59 -124 -81 -138 -22 -15 -15 14 21 89 43 90
56 111 62 94 2 -7 1 -27 -2 -45z m2764 -237 c0 -11 -4 -18 -10 -14 -5 3 -7 12
-3 20 7 21 13 19 13 -6z m-157 -15 c53 -27 67 -44 67 -83 0 -56 -23 -81 -73
-81 -77 0 -379 59 -401 77 -48 41 -45 45 44 63 36 7 71 18 79 24 16 13 147 25
209 20 23 -2 57 -11 75 -20z m-1263 2 c0 -11 -19 -15 -25 -6 -3 5 1 10 9 10 9
0 16 -2 16 -4z m170 -30 c320 -52 447 -80 603 -135 31 -11 85 -25 120 -31 123
-21 261 -56 326 -81 23 -9 23 -12 16 -97 -16 -201 -41 -327 -101 -497 -102
-291 -135 -420 -149 -585 -3 -41 -17 -115 -30 -165 -13 -49 -31 -128 -39 -175
-22 -120 -28 -143 -81 -345 -26 -99 -62 -238 -80 -310 -184 -727 -423 -1373
-563 -1526 -29 -31 -52 -63 -52 -70 -1 -14 -34 -59 -44 -59 -3 0 4 20 16 45
18 38 20 49 10 63 -7 9 -18 28 -25 42 -7 14 -20 37 -30 52 -35 52 -28 85 104
478 27 80 69 204 95 275 59 167 106 305 241 705 115 342 176 515 199 565 33
73 75 251 70 295 -3 28 -2 35 2 20 5 -14 11 -20 14 -15 6 10 30 156 30 185 0
8 8 92 19 185 10 94 19 242 20 330 l3 160 -39 20 c-21 11 -40 26 -43 33 -4 14
-32 16 -32 2 0 -5 -7 -10 -16 -10 -9 0 -14 7 -12 18 2 9 10 16 18 15 30 -5 38
40 23 124 -7 43 -11 98 -8 123 11 81 13 133 5 159 -6 24 -11 26 -63 27 -39 0
-61 5 -70 16 -6 9 -25 18 -42 22 -82 15 -95 19 -95 27 0 5 6 9 13 10 24 1 -29
18 -60 18 -17 1 -34 5 -37 10 -4 5 -25 12 -49 16 -86 14 -287 56 -309 65 -22
8 -21 9 7 9 17 0 68 -6 115 -13z m-935 -133 c-3 -60 -2 -164 3 -233 8 -122 5
-170 -9 -120 -4 14 -8 50 -8 80 -1 33 -8 63 -17 75 -16 19 -16 19 -9 -5 7 -22
6 -23 -8 -9 -17 17 -20 37 -18 117 1 31 6 52 12 52 7 0 9 -12 5 -32 -3 -18 -2
-46 3 -63 10 -32 12 -26 15 45 3 53 16 170 22 188 11 36 14 0 9 -95z m972 81
c-3 -3 -12 -4 -19 -1 -8 3 -5 6 6 6 11 1 17 -2 13 -5z m523 -174 c0 -5 -7 -7
-15 -4 -8 4 -15 8 -15 10 0 2 7 4 15 4 8 0 15 -4 15 -10z m-1006 -402 c3 -13
2 -41 -1 -63 -6 -36 -7 -38 -14 -15 -10 36 -10 100 0 100 5 0 11 -10 15 -22z
m-114 -17 c17 -33 12 -86 -10 -106 -18 -16 -20 -16 -20 -2 0 10 -7 17 -16 17
-14 0 -16 7 -11 40 8 63 36 88 57 51z m-20 -168 c-1 -24 -2 -26 -11 -10 -5 9
-7 22 -4 27 10 17 15 11 15 -17z m106 1 c-3 -9 -6 -20 -6 -25 0 -5 -4 -9 -9
-9 -4 0 -6 11 -3 25 2 14 9 25 14 25 6 0 7 -7 4 -16z m-186 -214 c4 0 6 -9 3
-20 -3 -11 -9 -20 -13 -20 -13 0 -19 26 -12 52 5 18 7 19 10 6 2 -10 7 -18 12
-18z m127 8 c-3 -8 -6 -5 -6 6 -1 11 2 17 5 13 3 -3 4 -12 1 -19z m-760 -200
c-3 -8 -6 -5 -6 6 -1 11 2 17 5 13 3 -3 4 -12 1 -19z m93 -181 c0 -5 -4 -5
-10 -2 -5 3 -10 14 -10 23 0 15 2 15 10 2 5 -8 10 -19 10 -23z m116 -196 c4
-16 20 -43 36 -60 33 -34 35 -59 3 -33 -26 22 -65 85 -65 106 0 27 20 18 26
-13z m1671 7 c-3 -8 -6 -5 -6 6 -1 11 2 17 5 13 3 -3 4 -12 1 -19z m-2907
-203 c0 -23 -24 -67 -49 -89 -21 -19 -21 -19 -21 6 0 14 11 37 25 52 14 15 25
31 25 37 0 5 5 9 10 9 6 0 10 -7 10 -15z m2520 -234 c0 -5 -7 -11 -15 -15 -9
-3 -15 0 -15 9 0 8 7 15 15 15 8 0 15 -4 15 -9z m-2849 -84 c-17 -17 -24 18
-9 45 l13 23 3 -29 c2 -16 -1 -33 -7 -39z m2809 23 c0 -5 -4 -10 -10 -10 -5 0
-10 5 -10 10 0 6 5 10 10 10 6 0 10 -4 10 -10z m-2662 -42 c-19 -33 -40 -58
-50 -58 -15 0 -8 15 23 53 34 41 49 44 27 5z m2755 25 c-7 -2 -19 -2 -25 0 -7
3 -2 5 12 5 14 0 19 -2 13 -5z m-43 -84 c0 -5 -4 -9 -9 -9 -5 0 -16 -3 -25 -6
-10 -4 -16 -1 -16 9 0 8 6 17 13 20 16 5 37 -3 37 -14z m52 -47 c4 -26 3 -27
-36 -23 -38 3 -39 2 -26 -14 12 -15 12 -19 -3 -29 -12 -10 -14 -15 -4 -25 8
-8 9 -16 0 -29 -6 -10 -10 -48 -8 -84 2 -65 1 -67 -23 -70 -14 -2 -28 -9 -30
-17 -4 -11 5 -12 42 -7 39 6 46 5 46 -9 0 -11 -5 -15 -15 -11 -12 4 -15 -5
-15 -50 0 -49 -2 -54 -15 -40 -17 17 -20 46 -5 46 6 0 10 7 10 15 0 20 -20 19
-35 -1 -17 -24 -75 -10 -68 16 3 10 -2 28 -10 40 -8 12 -13 29 -10 40 3 10 0
21 -6 24 -6 4 -11 16 -11 27 0 16 5 19 20 14 15 -5 32 5 67 39 34 32 43 46 31
46 -14 0 -18 9 -18 40 0 33 3 40 20 40 11 0 20 5 20 10 0 6 7 10 15 10 9 0 18
7 21 15 10 26 41 18 46 -13z m-2822 7 c0 -6 -12 -26 -27 -45 -14 -20 -28 -45
-29 -57 -1 -12 -3 -25 -3 -29 -1 -5 -7 -8 -15 -8 -19 0 6 90 35 124 24 27 39
33 39 15z m2820 -79 c0 -5 -5 -10 -11 -10 -5 0 -7 5 -4 10 3 6 8 10 11 10 2 0
4 -4 4 -10z m-160 -55 c0 -22 -3 -24 -19 -16 -31 17 -34 41 -6 41 20 0 25 -5
25 -25z m-2903 -17 c-3 -8 -6 -5 -6 6 -1 11 2 17 5 13 3 -3 4 -12 1 -19z
m2820 -30 c-3 -8 -6 -5 -6 6 -1 11 2 17 5 13 3 -3 4 -12 1 -19z m-2697 2 c0
-5 -2 -10 -4 -10 -3 0 -8 5 -11 10 -3 6 -1 10 4 10 6 0 11 -4 11 -10z m-30
-25 c0 -8 -4 -15 -10 -15 -5 0 -10 -7 -10 -16 0 -8 -4 -12 -10 -9 -5 3 -10 0
-10 -7 -1 -17 -39 -63 -46 -55 -12 12 8 60 36 88 31 32 50 37 50 14z m-170
-28 c0 -7 -7 -22 -15 -33 -14 -18 -14 -18 -15 7 0 14 3 29 7 32 11 11 23 8 23
-6z m2905 -39 c-3 -13 -11 -33 -18 -46 -9 -18 -8 -25 2 -31 7 -5 11 -19 9 -32
l-3 -24 -28 29 c-34 36 -35 63 -2 78 13 6 27 19 30 30 9 26 18 22 10 -4z m-85
-88 c0 -5 -2 -10 -4 -10 -3 0 -8 5 -11 10 -3 6 -1 10 4 10 6 0 11 -4 11 -10z
m-2820 -10 c0 -5 -5 -10 -11 -10 -5 0 -7 5 -4 10 3 6 8 10 11 10 2 0 4 -4 4
-10z m2962 -17 c12 -10 18 -12 18 -4 0 7 5 9 11 6 5 -4 9 -17 8 -28 -2 -38 0
-45 23 -50 l22 -6 -22 -24 c-23 -24 -30 -57 -12 -57 6 0 10 -4 10 -10 0 -5 -7
-10 -15 -10 -8 0 -15 -4 -15 -10 0 -5 -11 -10 -24 -10 -14 0 -28 -5 -31 -10
-5 -8 -12 -7 -22 2 -9 7 -18 12 -20 11 -3 -3 -3 -1 -2 20 0 9 2 9 5 0 3 -7 12
-9 20 -6 19 7 18 23 -1 23 -8 0 -15 4 -15 10 0 5 -6 7 -14 4 -18 -7 -33 16
-17 25 9 6 9 15 1 35 -16 42 -13 46 30 46 37 0 40 2 30 19 -21 41 -3 56 32 24z
m-3132 -37 c0 -14 -5 -28 -10 -31 -13 -8 -24 20 -16 40 9 24 26 17 26 -9z
m142 -22 c-2 -10 -3 -40 -2 -66 1 -49 -2 -53 -43 -48 -11 1 -21 -9 -28 -29
-13 -36 -24 -39 -39 -12 -14 28 -13 38 9 44 14 3 17 11 14 30 -4 18 0 27 14
31 10 3 27 22 37 41 20 37 44 42 38 9z m-441 -144 c23 -23 30 -37 27 -62 -4
-45 -23 -46 -63 -3 -67 71 -32 133 36 65z m217 -35 c-7 -7 -30 -15 -51 -18
-32 -5 -38 -3 -35 11 3 14 14 22 78 52 20 10 27 -28 8 -45z m3146 0 c17 -11
22 -22 19 -40 -3 -14 -10 -22 -18 -18 -8 2 -19 -4 -26 -15 -7 -12 -19 -17 -31
-14 -25 6 -23 16 7 32 18 10 22 17 15 24 -8 8 -13 7 -20 -4 -5 -8 -12 -12 -15
-8 -5 4 34 57 43 58 1 0 13 -7 26 -15z m106 9 c0 -10 -28 -34 -39 -34 -14 0
-14 13 1 28 12 12 38 17 38 6z m-3122 -57 c2 -10 -3 -17 -12 -17 -18 0 -29 16
-21 31 9 14 29 6 33 -14z m3129 -9 c-3 -8 -6 -5 -6 6 -1 11 2 17 5 13 3 -3 4
-12 1 -19z m-1696 -74 c-5 -32 -19 -93 -31 -134 -42 -144 -50 -175 -50 -201 0
-15 -33 -128 -74 -250 -40 -123 -85 -267 -100 -319 -15 -52 -33 -111 -41 -130
-7 -19 -25 -71 -38 -115 -14 -44 -41 -114 -60 -155 -19 -41 -53 -122 -76 -180
-22 -58 -58 -152 -81 -209 -22 -57 -40 -109 -40 -117 0 -26 -24 -64 -40 -64
-9 0 -41 21 -71 48 -30 26 -76 60 -102 76 -43 28 -62 56 -36 56 6 0 8 9 3 22
-10 32 -6 211 7 266 8 38 442 924 469 957 4 6 21 35 38 65 34 63 147 183 177
188 11 1 21 7 23 11 2 5 12 19 22 31 10 12 16 28 13 36 -3 8 1 14 11 14 9 0
16 6 16 14 0 7 11 34 25 60 14 26 25 55 25 65 0 17 10 34 17 28 2 -2 -1 -30
-6 -63z m-1966 36 c3 -5 1 -10 -4 -10 -6 0 -11 5 -11 10 0 6 2 10 4 10 3 0 8
-4 11 -10z m595 6 c0 -3 -4 -8 -10 -11 -5 -3 -10 -1 -10 4 0 6 5 11 10 11 6 0
10 -2 10 -4z m-326 -35 c3 -5 -10 -21 -29 -35 -29 -23 -35 -24 -35 -10 0 35
49 69 64 45z m-648 -16 c17 -16 14 -18 -10 -9 -9 3 -16 10 -16 15 0 13 9 11
26 -6z m963 -17 c-1 -7 -5 -24 -9 -38 -7 -22 -8 -21 -9 13 -1 20 4 37 9 37 6
0 10 -6 9 -12z m2981 -13 c0 -8 -7 -15 -16 -15 -14 0 -14 3 -4 15 7 8 14 15
16 15 2 0 4 -7 4 -15z m47 -7 c-3 -8 -6 -5 -6 6 -1 11 2 17 5 13 3 -3 4 -12 1
-19z m-3937 -27 c17 -33 11 -48 -10 -22 -11 13 -20 27 -20 32 0 16 19 9 30
-10z m490 -10 c0 -12 -20 -25 -27 -18 -7 7 6 27 18 27 5 0 9 -4 9 -9z m2644
-66 c17 -25 16 -25 -4 -13 -11 7 -20 18 -20 25 0 19 6 16 24 -12z m-3058 -47
c8 -16 12 -34 8 -40 -4 -7 -3 -8 4 -4 6 3 16 -3 22 -15 16 -29 8 -33 -20 -9
-13 11 -20 23 -17 26 4 4 -2 19 -12 33 -31 45 -33 51 -16 45 9 -4 23 -20 31
-36z m189 -35 c4 -21 3 -33 -4 -33 -13 0 -30 31 -24 47 2 6 -1 14 -6 18 -6 3
-11 14 -11 23 0 28 37 -18 45 -55z m632 5 c-3 -8 -6 -5 -6 6 -1 11 2 17 5 13
3 -3 4 -12 1 -19z m-601 -90 l17 -33 -22 19 c-11 11 -21 25 -21 33 0 21 8 15
26 -19z m-116 -40 c0 -20 -21 -5 -36 25 l-17 32 26 -25 c15 -14 27 -28 27 -32z
m45 -43 c15 -13 25 -28 23 -33 -1 -4 -16 7 -31 25 -34 39 -29 43 8 8z m-1811
-477 c-4 -6 -3 -8 3 -5 12 8 121 -19 139 -34 10 -8 204 -6 284 4 8 1 39 -2 68
-6 47 -7 52 -10 41 -23 -11 -14 -50 -16 -300 -12 -158 1 -290 5 -292 8 -3 3
-8 17 -12 32 -6 24 -3 28 27 37 45 13 50 13 42 -1z m881 -40 c17 -1 81 3 143
7 81 6 112 5 112 -3 0 -7 -10 -14 -22 -17 -39 -8 -448 -11 -448 -3 0 4 15 8
34 8 19 0 38 5 42 11 4 8 24 9 58 4 28 -4 65 -7 81 -7z m555 1 c0 -5 19 -9 42
-9 53 0 148 -22 148 -33 0 -5 -12 -7 -27 -3 -68 15 -285 34 -395 35 -32 1 -58
5 -58 10 0 6 61 9 145 9 80 0 145 -4 145 -9z m270 -64 c27 -15 20 -19 -17 -9
-13 4 -23 10 -23 15 0 12 11 11 40 -6z m125 -63 c-3 -3 -11 0 -18 7 -9 10 -8
11 6 5 10 -3 15 -9 12 -12z m1826 -87 c-1 -15 -24 -12 -29 3 -3 9 2 13 12 10
10 -1 17 -7 17 -13z m102 -32 c-7 -2 -21 -2 -30 0 -10 3 -4 5 12 5 17 0 24 -2
18 -5z m1512 -13 c-3 -5 -11 -10 -16 -10 -6 0 -7 5 -4 10 3 6 11 10 16 10 6 0
7 -4 4 -10z m-3019 -87 c4 -24 -15 -23 -43 2 -16 15 -21 23 -11 19 12 -4 20 0
24 11 6 16 8 16 18 -1 5 -11 11 -25 12 -31z m2857 20 c-7 -2 -21 -2 -30 0 -10
3 -4 5 12 5 17 0 24 -2 18 -5z m-66 -9 c-3 -3 -12 -4 -19 -1 -8 3 -5 6 6 6 11
1 17 -2 13 -5z m-2136 -384 c18 -15 20 -19 8 -20 -9 0 -24 9 -34 20 -23 26 -4
26 26 0z m859 -739 c0 -10 -7 -8 -23 7 -13 12 -26 19 -30 16 -8 -8 -57 23 -57
36 0 15 109 -44 110 -59z m-3249 49 c27 -15 45 -55 64 -145 24 -115 18 -133
-63 -193 -105 -78 -163 -111 -201 -117 -99 -15 -165 -28 -256 -49 -55 -13
-134 -31 -174 -41 -41 -9 -107 -27 -145 -40 -39 -13 -136 -36 -216 -50 -80
-14 -176 -32 -215 -40 -38 -7 -126 -23 -195 -35 -465 -81 -900 -183 -1420
-331 -135 -39 -258 -75 -275 -80 -16 -5 -186 -61 -376 -124 -190 -62 -363
-117 -384 -121 l-38 -7 7 34 c3 19 14 79 24 134 31 166 69 232 161 272 57 25
217 81 716 247 412 138 488 162 673 210 166 43 488 121 632 151 41 9 107 23
145 31 39 9 108 22 155 30 47 8 153 27 235 43 83 16 202 39 265 50 63 12 153
30 200 41 47 11 162 35 255 54 94 19 211 46 260 60 101 27 137 31 166 16z
m3366 -127 c20 -18 41 -33 46 -33 5 0 33 -21 61 -47 29 -27 72 -61 97 -78 64
-43 199 -155 199 -166 0 -4 -7 -6 -15 -2 -9 3 -13 8 -10 11 3 3 -8 11 -24 18
-44 18 -181 123 -181 138 0 7 -12 16 -27 19 -16 3 -46 22 -68 42 -22 20 -52
44 -66 53 -46 30 -109 89 -109 101 0 16 46 -11 97 -56z m-3520 -359 c6 -19
-41 -77 -112 -136 -175 -145 -311 -257 -364 -298 -32 -25 -91 -72 -132 -105
-41 -33 -137 -107 -214 -165 -77 -58 -174 -133 -215 -167 -41 -34 -129 -106
-195 -160 -66 -53 -124 -103 -130 -109 -5 -6 -37 -35 -70 -64 -55 -48 -216
-194 -255 -230 -9 -8 -63 -55 -120 -104 -186 -159 -397 -372 -876 -886 -23
-25 -68 -76 -99 -115 -32 -38 -78 -93 -104 -121 -135 -148 -385 -467 -559
-714 -17 -25 -57 -81 -89 -125 -115 -158 -240 -355 -333 -525 -35 -63 -73
-133 -85 -155 -31 -56 -100 -171 -177 -295 -101 -164 -153 -257 -279 -508
-109 -215 -141 -267 -202 -329 -59 -61 -100 -4 -149 207 -6 25 -34 90 -63 145
-29 55 -59 125 -66 155 -24 96 -17 477 21 1165 35 635 51 867 69 988 21 134
62 360 87 468 15 63 34 152 44 199 10 47 37 166 60 265 23 99 46 196 50 215 4
19 21 87 38 150 17 63 34 126 38 140 89 340 228 604 382 722 82 64 85 46 37
-217 -14 -71 -29 -155 -34 -185 -10 -57 -72 -370 -90 -450 -5 -25 -24 -119
-41 -210 -34 -177 -117 -562 -156 -725 -49 -201 -83 -443 -104 -745 -6 -91
-20 -246 -30 -346 -11 -99 -24 -333 -30 -520 -6 -186 -15 -424 -20 -529 -10
-219 -14 -233 -115 -442 -73 -153 -81 -182 -35 -138 83 79 274 404 411 699
136 290 266 542 331 638 21 31 38 59 38 63 0 3 15 29 34 58 18 28 73 115 122
192 48 77 100 156 114 175 15 19 53 78 85 130 71 114 205 296 289 393 33 39
95 109 136 157 278 321 861 915 971 989 36 24 71 52 78 62 10 18 8 19 -36 19
-27 -1 -66 -8 -88 -16 -57 -21 -121 -40 -190 -54 -33 -7 -94 -21 -135 -32 -41
-11 -133 -35 -205 -53 -71 -19 -222 -59 -335 -90 -113 -31 -245 -67 -295 -80
-49 -13 -116 -31 -148 -39 -114 -31 -134 -20 -163 86 -34 124 -12 244 51 278
101 55 331 138 540 195 55 15 145 40 200 55 238 65 504 131 590 145 22 4 83
15 135 25 134 26 235 39 390 49 185 13 191 16 393 186 528 444 695 558 953
654 74 27 218 70 339 101 28 7 54 17 60 22 13 11 47 6 52 -8z m3968 6 c3 -5
-1 -10 -9 -10 -9 0 -16 5 -16 10 0 6 4 10 9 10 6 0 13 -4 16 -10z m140 -98
c-7 -8 -35 7 -35 18 0 6 7 6 20 -2 10 -7 17 -14 15 -16z m65 -57 c0 -12 -29
-3 -34 10 -4 13 -2 14 14 5 11 -6 20 -13 20 -15z m282 -205 c39 -37 62 -53
179 -131 71 -47 144 -107 181 -147 21 -23 42 -42 47 -42 13 0 33 -28 29 -40
-2 -6 -21 6 -43 27 -102 97 -157 143 -170 143 -7 0 -20 6 -27 13 -7 6 -25 18
-40 26 -15 8 -44 30 -65 49 -21 19 -45 39 -54 46 -49 35 -110 96 -96 96 9 0
35 -18 59 -40z m533 -435 c17 -13 25 -24 18 -25 -7 0 -25 11 -40 25 -36 32
-17 32 22 0z m240 -225 c3 -5 1 -10 -4 -10 -6 0 -11 5 -11 10 0 6 2 10 4 10 3
0 8 -4 11 -10z m1436 -5552 c10 -13 18 -30 19 -38 0 -8 13 -42 29 -75 16 -33
39 -81 51 -107 12 -27 25 -50 30 -53 5 -3 11 -23 15 -45 4 -22 22 -63 41 -90
19 -27 34 -57 34 -65 0 -9 11 -38 25 -65 14 -27 25 -54 25 -61 0 -9 59 -138
101 -221 14 -29 23 -45 102 -208 72 -146 167 -388 167 -423 0 -9 10 -40 23
-69 13 -29 29 -82 36 -118 15 -73 46 -179 67 -228 8 -18 14 -39 14 -46 0 -16
46 -163 60 -191 6 -11 28 -74 49 -140 21 -66 57 -159 80 -208 22 -48 41 -97
41 -108 0 -11 23 -68 50 -126 53 -111 62 -158 17 -86 -15 24 -27 47 -27 53 0
11 -73 180 -96 223 -9 15 -34 78 -56 140 -51 145 -82 230 -106 292 -11 28 -43
111 -72 185 -29 74 -79 209 -110 300 -66 189 -117 326 -155 420 -67 163 -128
309 -151 356 -13 28 -24 54 -24 58 0 4 -22 54 -50 112 -27 58 -50 107 -50 110
0 3 -20 48 -44 102 -24 53 -55 122 -69 152 -26 58 -97 264 -97 280 0 16 10 12
31 -12z m-13580 -310 c36 -27 37 -45 4 -60 -42 -19 -78 0 -86 45 -3 20 -3 39
0 42 9 10 51 -4 82 -27z m29 -168 c29 -24 33 -32 24 -47 -6 -10 -24 -20 -39
-21 -22 -3 -35 4 -57 29 -32 36 -33 40 -16 57 20 20 51 13 88 -18z m28 -143
c22 -17 52 -84 52 -116 0 -23 -6 -31 -28 -39 -35 -12 -68 1 -78 30 -4 12 -21
40 -38 61 -24 30 -28 42 -20 55 19 29 80 34 112 9z m1 -222 c29 -15 41 -39 41
-87 0 -15 9 -50 20 -78 20 -52 27 -135 11 -144 -16 -10 -39 20 -59 79 -22 65
-30 85 -57 152 -18 42 -14 93 6 93 5 0 23 -7 38 -15z m108 -436 c25 -48 47
-127 57 -199 6 -44 6 -44 -8 -19 -8 14 -24 61 -36 103 -11 43 -27 87 -34 99
-8 12 -17 33 -21 46 -12 40 18 20 42 -30z m-1863 -315 c18 -7 12 -24 -10 -24
-8 0 -14 7 -14 15 0 17 2 18 24 9z m2001 -168 c5 -30 5 -30 -6 4 -6 19 -15 39
-20 45 -5 5 -9 18 -8 30 1 27 28 -35 34 -79z m-2340 -46 c3 -5 -3 -10 -14 -10
-12 0 -21 5 -21 10 0 6 6 10 14 10 8 0 18 -4 21 -10z m1375 -480 c0 -5 -2 -10
-4 -10 -3 0 -8 5 -11 10 -3 6 -1 10 4 10 6 0 11 -4 11 -10z m113 -100 c28 -26
30 -30 12 -31 -11 -1 -26 -1 -32 0 -8 1 -13 -9 -13 -24 0 -31 -3 -31 -35 -3
-29 25 -33 51 -7 46 9 -1 23 1 30 6 10 6 9 11 -5 22 -17 13 -17 13 0 14 10 0
32 -13 50 -30z m62 -70 c3 -11 13 -20 21 -20 8 0 14 -4 14 -9 0 -17 -48 2 -53
21 -3 11 -10 17 -16 13 -6 -3 -11 -1 -11 4 0 20 39 11 45 -9z m73 -72 c15 -15
16 -38 2 -38 -5 0 -10 9 -10 19 0 11 -6 22 -12 24 -7 3 -8 6 -2 6 5 1 15 -4
22 -11z m47 -138 c3 -5 1 -10 -4 -10 -6 0 -11 5 -11 10 0 6 2 10 4 10 3 0 8
-4 11 -10z m15079 -196 c11 -28 6 -39 -9 -20 -8 11 -15 23 -15 28 0 14 18 9
24 -8z m36 -86 c0 -5 -4 -8 -10 -8 -5 0 -10 10 -10 23 0 18 2 19 10 7 5 -8 10
-18 10 -22z m359 -345 c38 -46 40 -73 8 -73 -32 0 -71 53 -63 86 9 33 19 30
55 -13z m-226 -137 c6 -16 -2 -28 -14 -20 -12 7 -11 34 0 34 5 0 11 -6 14 -14z
m300 -53 c49 -25 184 -143 267 -233 79 -86 155 -190 222 -305 130 -220 256
-625 283 -910 8 -77 19 -161 25 -187 13 -51 10 -100 -4 -63 -15 39 -26 61 -95
180 -88 152 -156 275 -191 345 -39 78 -171 317 -203 367 -15 24 -27 45 -27 48
0 3 -17 32 -37 63 -20 31 -44 71 -53 87 -10 17 -35 62 -58 100 -137 236 -167
310 -177 444 -4 46 -9 91 -13 100 -5 14 -3 13 12 -2 10 -9 32 -25 49 -34z
m-145 -238 c-11 -13 -25 -22 -30 -19 -12 7 21 44 38 44 9 0 7 -8 -8 -25z
m-501 -257 c26 -25 32 -78 8 -78 -8 0 -20 10 -26 23 -7 12 -19 27 -26 32 -15
11 -8 45 10 45 6 0 21 -10 34 -22z m121 -104 c-3 -14 -5 -12 -10 9 -3 19 -2
25 4 19 6 -6 8 -18 6 -28z m-257 -26 c11 -11 19 -25 19 -31 0 -5 14 -7 30 -5
17 3 33 0 37 -5 3 -5 9 -3 14 4 4 7 10 11 13 8 3 -3 0 -13 -7 -23 -10 -14 -18
-15 -39 -7 -17 6 -30 7 -33 1 -3 -6 -16 -5 -32 1 -15 6 -38 7 -50 4 l-24 -6
21 41 c11 22 23 40 27 40 3 0 14 -10 24 -22z m11959 -3 c14 -8 42 -14 62 -15
41 0 61 -22 52 -57 -5 -18 -12 -20 -44 -16 -23 3 -61 -2 -97 -13 -68 -22 -202
-26 -225 -7 -10 8 -30 11 -58 7 -32 -5 -41 -3 -35 6 18 28 228 106 295 108 14
1 36 -5 50 -13z m268 -25 c17 0 23 -5 20 -17 -5 -26 -40 -27 -73 -2 -26 21
-26 23 -9 30 10 4 23 3 29 -2 5 -5 20 -9 33 -9z m-12594 -235 c-4 -8 -13 -15
-20 -15 -12 0 -12 3 -2 15 17 19 29 19 22 0z m-207 -131 c2 -7 -5 -10 -21 -7
-18 4 -27 -1 -36 -17 -8 -14 -17 -19 -28 -15 -9 3 -31 -2 -49 -12 -33 -18 -43
-33 -22 -33 8 0 8 -5 -1 -15 -14 -17 -35 -21 -25 -5 3 6 2 10 -4 10 -17 0 -61
-23 -61 -32 0 -5 -26 -20 -59 -34 -50 -22 -58 -29 -53 -46 4 -18 2 -20 -16
-16 -16 5 -22 1 -24 -16 -4 -22 -7 -23 -48 -11 -24 7 -25 7 -5 -9 19 -16 19
-17 -10 -15 -48 2 -55 0 -55 -15 0 -10 -7 -12 -22 -8 -21 5 -21 6 -2 13 15 6
16 8 2 8 -25 1 -75 -21 -61 -26 10 -4 9 -8 -1 -19 -8 -8 -17 -14 -21 -14 -4 0
-13 -7 -21 -15 -9 -8 -31 -15 -50 -15 -20 0 -43 -7 -51 -16 -9 -8 -19 -11 -22
-6 -3 5 -18 11 -34 14 -22 4 -32 0 -48 -23 -11 -16 -29 -29 -39 -29 -10 0 -21
-4 -25 -9 -3 -6 -26 -13 -52 -17 -41 -6 -48 -4 -64 17 -13 18 -15 27 -7 37 24
28 72 43 146 46 50 1 86 8 102 18 14 9 52 23 85 32 33 8 83 26 110 39 28 14
75 32 105 40 30 9 80 32 110 52 30 19 61 35 68 35 8 0 31 14 52 30 21 17 42
30 47 30 6 0 28 13 50 29 21 15 52 36 69 45 32 17 85 17 91 0z m-1105 -453
c-12 -33 -35 -41 -99 -37 -66 5 -123 -8 -123 -28 0 -7 -14 -10 -40 -8 -23 2
-40 0 -40 -6 0 -6 4 -12 9 -14 5 -1 3 -9 -5 -16 -8 -7 -14 -8 -14 -2 0 5 -7
10 -15 10 -8 0 -15 -5 -15 -11 0 -6 -7 -9 -15 -5 -8 3 -14 0 -12 -7 1 -8 -12
-11 -40 -10 -36 1 -43 -1 -43 -17 0 -17 -4 -18 -25 -10 -15 6 -26 6 -30 0 -4
-6 -17 -10 -30 -10 -18 0 -23 -4 -18 -16 5 -14 0 -15 -38 -10 -40 5 -41 5 -11
-5 47 -14 39 -21 -18 -14 -40 5 -51 3 -56 -9 -3 -9 -15 -16 -25 -16 -10 0 -27
-8 -38 -19 -10 -10 -25 -21 -32 -24 -10 -4 -9 -6 3 -6 14 -1 16 -9 13 -47 -2
-25 -5 -48 -8 -50 -8 -9 -98 108 -95 123 2 12 20 21 53 29 49 11 79 22 290
105 55 21 104 39 108 39 5 0 34 12 65 26 52 24 240 87 287 96 31 6 64 -12 57
-31z m-142 -51 c0 -5 -7 -10 -15 -10 -8 0 -15 5 -15 10 0 6 7 10 15 10 8 0 15
-4 15 -10z m-506 -355 c22 -46 29 -105 14 -105 -6 0 -1 -9 12 -20 15 -13 21
-26 17 -40 -3 -11 -1 -23 5 -26 5 -3 7 -13 4 -21 -3 -8 -1 -11 4 -8 6 3 10 1
10 -4 0 -6 7 -11 16 -11 12 0 14 -7 9 -30 -5 -22 2 -48 29 -106 20 -41 36 -81
36 -87 0 -14 -55 71 -95 148 -38 72 -71 130 -119 209 -52 86 -54 96 -20 123
38 31 55 26 78 -22z m1996 -216 c0 -5 -4 -9 -10 -9 -5 0 -10 7 -10 16 0 8 5
12 10 9 6 -3 10 -10 10 -16z m-240 -49 c0 -16 -2 -30 -4 -30 -2 0 -6 14 -8 30
-3 17 -1 30 4 30 4 0 8 -13 8 -30z m49 -190 c1 -13 0 -13 -9 0 -5 8 -9 26 -9
40 l1 25 8 -25 c4 -14 8 -32 9 -40z m-1615 -66 c3 -8 2 -12 -4 -9 -6 3 -10 10
-10 16 0 14 7 11 14 -7z m4867 -34 c48 -43 44 -48 -22 -25 -43 16 -59 29 -59
53 0 24 37 11 81 -28z m-3165 -85 c9 -31 14 -58 11 -61 -3 -3 -10 12 -17 33
-7 21 -16 42 -21 48 -12 12 -12 48 0 41 5 -4 17 -31 27 -61z m271 -47 c-3 -8
-6 -5 -6 6 -1 11 2 17 5 13 3 -3 4 -12 1 -19z m1713 -73 c0 -18 -4 -23 -15
-19 -17 7 -17 7 -9 28 9 24 24 19 24 -9z m-1920 -61 c0 -13 5 -26 10 -29 6 -3
10 -18 10 -33 -1 -26 -1 -26 -16 8 -8 19 -19 53 -24 75 -8 36 -7 38 6 21 8
-11 14 -30 14 -42z m1929 -132 c0 -65 4 -128 8 -142 4 -14 9 -162 10 -330 3
-318 10 -416 33 -487 11 -35 11 -59 1 -128 -19 -134 -82 -284 -248 -585 -40
-74 -77 -141 -82 -149 -4 -8 -13 -17 -21 -19 -10 -4 -11 10 -5 74 9 91 9 85 5
184 -3 95 8 631 16 730 21 272 61 484 125 665 36 102 43 119 67 156 12 20 22
46 22 58 0 11 4 21 9 21 4 0 6 12 3 26 -3 19 -1 25 7 20 7 -4 15 4 22 21 17
46 26 10 28 -115z m-1849 -100 c0 -7 -4 -10 -10 -7 -5 3 -10 16 -10 28 0 18 2
19 10 7 5 -8 10 -21 10 -28z m160 -103 c0 -11 -4 -17 -10 -14 -5 3 -10 13 -10
21 0 8 5 14 10 14 6 0 10 -9 10 -21z m-80 -127 c0 -13 5 -32 11 -43 5 -11 9
-28 7 -37 -6 -27 -34 35 -42 93 -6 45 -5 47 9 30 8 -11 15 -30 15 -43z m-1490
-7 c21 -56 23 -75 6 -75 -8 0 -23 11 -32 25 -14 21 -15 31 -6 50 15 31 20 31
32 0z m5961 -125 c26 -14 180 -138 191 -154 13 -19 -4 -27 -17 -9 -12 16 -14
16 -20 2 -10 -28 -59 -9 -63 23 -5 39 -26 53 -59 40 -50 -20 -91 -3 -121 50
-26 46 -26 48 -8 61 21 15 51 11 97 -13z m-4431 3 c0 -9 9 -35 19 -57 10 -23
21 -52 24 -66 3 -14 9 -36 13 -50 7 -25 7 -25 -13 -7 -13 11 -23 35 -26 60 -2
23 -12 63 -20 90 -9 26 -12 47 -7 47 6 0 10 -8 10 -17z m-1430 -50 c0 -16 -4
-34 -9 -42 -7 -11 -11 -9 -21 10 -10 17 -10 24 -1 27 6 2 11 10 11 18 0 8 5
14 10 14 6 0 10 -12 10 -27z m6262 -330 c31 -35 64 -85 74 -111 10 -26 27 -59
38 -75 19 -27 19 -27 1 -41 -18 -13 -23 -11 -55 16 -40 35 -80 95 -80 121 0 9
-11 34 -23 55 -13 20 -26 48 -29 62 -3 14 -9 33 -13 43 -13 31 22 3 87 -70z
m-5979 -5 c33 -35 35 -58 5 -58 -21 0 -21 0 -2 -15 19 -14 19 -14 -2 -15 -26
0 -66 53 -58 77 5 14 4 15 -4 4 -9 -12 -13 -12 -26 -2 -18 15 -21 41 -6 41 6
0 10 7 10 16 0 15 3 15 28 -1 15 -10 39 -31 55 -47z m115 -11 c2 -10 -3 -17
-12 -17 -9 0 -16 2 -16 4 0 2 -3 12 -6 21 -5 13 -2 16 12 13 10 -2 20 -11 22
-21z m-14 -89 c19 -13 42 -37 50 -55 9 -19 23 -33 33 -33 39 0 112 -34 122
-57 6 -13 17 -23 24 -23 8 0 22 -9 32 -20 10 -11 22 -20 27 -20 5 0 25 -7 46
-16 20 -9 46 -18 56 -19 10 -1 24 -9 30 -17 6 -8 26 -22 44 -32 17 -9 32 -21
32 -26 0 -6 9 -10 21 -10 13 0 18 -4 13 -11 -5 -9 1 -10 20 -5 16 4 26 2 26
-5 0 -26 -84 3 -240 83 -91 46 -180 94 -197 106 -17 12 -34 22 -37 22 -9 0
-147 90 -163 106 -11 10 -11 18 -3 34 14 25 22 25 64 -2z m6045 -135 c20 -20
91 -129 141 -218 18 -33 40 -64 47 -68 15 -9 18 -37 3 -37 -16 0 -105 93 -118
123 -7 15 -12 37 -12 47 0 11 -6 20 -14 20 -8 0 -28 17 -45 37 -23 27 -31 48
-31 75 0 43 3 45 29 21z m20 -239 c39 -19 51 -30 51 -48 0 -30 -25 -52 -76
-65 -23 -6 -53 -20 -67 -31 -26 -21 -91 -27 -102 -11 -3 5 10 26 29 46 26 27
40 35 55 30 30 -9 51 33 26 52 -18 12 -18 13 0 33 23 25 23 25 84 -6z m-5438
-21 c9 -8 26 -15 38 -16 11 -1 21 -5 21 -9 0 -4 11 -8 25 -8 14 0 25 -4 25 -9
0 -5 34 -27 75 -47 78 -40 98 -62 22 -25 -24 11 -47 21 -51 21 -4 0 -22 11
-40 25 -18 14 -39 25 -47 25 -19 0 -128 53 -129 63 0 11 41 -2 61 -20z m337
-159 c21 -9 55 -24 77 -34 22 -10 55 -24 73 -32 17 -7 32 -16 32 -20 0 -5 5
-8 11 -8 22 0 144 -54 155 -68 6 -9 18 -13 28 -9 9 4 16 2 16 -4 0 -5 11 -7
25 -3 16 4 25 2 25 -6 0 -7 8 -9 19 -5 12 4 21 0 25 -12 6 -15 8 -15 16 -3 8
12 10 10 10 -7 0 -16 6 -23 19 -23 11 0 22 -4 25 -9 4 -5 29 -12 56 -16 33 -5
50 -12 50 -21 0 -8 9 -14 19 -14 30 0 51 -11 51 -26 0 -11 5 -12 18 -6 19 10
82 -11 82 -28 0 -6 6 -10 13 -9 6 1 26 1 42 -1 24 -1 26 -3 11 -9 -17 -6 -16
-9 9 -25 14 -10 33 -15 40 -12 8 3 17 1 20 -4 4 -6 13 -10 21 -10 18 0 104
-38 104 -46 0 -22 -352 85 -384 117 -6 5 -16 9 -24 9 -7 0 -91 38 -185 83 -95
46 -190 92 -212 102 -121 55 -345 165 -345 170 0 9 21 5 58 -11z m4311 -593
c22 -14 3 -31 -35 -31 -36 0 -42 8 -22 28 14 14 37 15 57 3z m-12866 -1581 c7
-26 -4 -32 -27 -15 -12 9 -16 20 -11 35 5 16 10 18 20 10 7 -6 15 -20 18 -30z
m23617 -1311 c0 -64 -15 -73 -26 -15 -5 30 8 76 21 76 3 0 5 -27 5 -61z m43
-134 c10 -26 15 -50 12 -53 -11 -12 -38 28 -45 67 -10 57 10 49 33 -14z
m-7098 -1465 c3 -5 -1 -10 -9 -10 -9 0 -16 5 -16 10 0 6 4 10 9 10 6 0 13 -4
16 -10z"/>
<path d="M16865 23730 c3 -5 8 -10 11 -10 2 0 4 5 4 10 0 6 -5 10 -11 10 -5 0
-7 -4 -4 -10z"/>
<path d="M16800 23706 c0 -9 5 -16 10 -16 6 0 10 4 10 9 0 6 -4 13 -10 16 -5
3 -10 -1 -10 -9z"/>
<path d="M17928 9223 c7 -3 16 -2 19 1 4 3 -2 6 -13 5 -11 0 -14 -3 -6 -6z"/>
<path d="M18740 31586 c0 -7 7 -19 15 -26 12 -10 16 -9 21 3 3 9 3 21 -1 27
-9 15 -35 12 -35 -4z"/>
<path d="M18297 31255 c-27 -7 -50 -15 -53 -17 -2 -3 29 -5 69 -6 74 -1 105 7
93 27 -9 14 -48 13 -109 -4z"/>
<path d="M30395 31010 c-3 -6 1 -7 9 -4 18 7 21 14 7 14 -6 0 -13 -4 -16 -10z"/>
<path d="M30349 30973 c-13 -17 -13 -17 6 -3 11 8 22 16 24 17 2 2 0 3 -6 3
-6 0 -17 -8 -24 -17z"/>
<path d="M16285 30771 c-3 -6 3 -15 14 -20 14 -8 20 -7 24 3 3 8 -1 17 -9 20
-20 8 -22 8 -29 -3z"/>
<path d="M37937 30349 c-46 -30 -59 -49 -34 -49 17 1 89 52 95 68 6 19 -11 14
-61 -19z"/>
<path d="M23384 29545 c-9 -14 -14 -29 -10 -32 8 -8 58 28 64 45 7 23 -38 12
-54 -13z"/>
<path d="M10476 29358 c-17 -29 -28 -96 -15 -103 12 -8 94 51 114 81 24 37 18
44 -35 44 -41 0 -52 -4 -64 -22z"/>
<path d="M9986 29333 c-7 -17 21 -64 40 -69 5 -2 20 11 32 27 20 24 22 32 12
44 -17 21 -76 19 -84 -2z"/>
<path d="M10378 29343 c7 -3 16 -2 19 1 4 3 -2 6 -13 5 -11 0 -14 -3 -6 -6z"/>
<path d="M10345 28860 c-7 -23 10 -50 31 -50 19 0 18 35 -2 54 -20 20 -21 20
-29 -4z"/>
<path d="M17840 28622 c0 -14 39 -46 47 -38 4 4 2 15 -3 24 -12 19 -44 29 -44
14z"/>
<path d="M1782 28524 c4 -33 82 -94 99 -77 8 8 3 16 -20 27 -17 9 -31 22 -31
30 0 13 -31 46 -44 46 -4 0 -6 -12 -4 -26z"/>
<path d="M1350 28424 c0 -19 34 -74 46 -74 20 0 17 23 -7 54 -19 24 -39 34
-39 20z"/>
<path d="M1525 28220 c17 -19 45 -27 45 -14 0 11 -34 33 -49 34 -11 0 -10 -5
4 -20z"/>
<path d="M2850 28051 c0 -10 54 -31 81 -31 30 0 22 17 -12 29 -39 13 -69 14
-69 2z"/>
<path d="M5692 24864 c-35 -24 -78 -55 -95 -71 -18 -15 -53 -44 -77 -63 -24
-19 -88 -71 -141 -115 -54 -44 -129 -104 -166 -132 -37 -29 -97 -76 -132 -103
-35 -28 -91 -70 -125 -92 -33 -23 -77 -55 -97 -72 -20 -17 -48 -40 -62 -50
-15 -10 -27 -23 -27 -28 0 -10 76 27 85 42 3 5 61 48 129 95 67 47 149 107
181 135 33 27 77 62 98 77 68 49 209 164 293 237 78 69 132 114 184 155 49 38
14 27 -48 -15z"/>
<path d="M6246 24420 c-48 -68 -205 -257 -359 -433 -51 -59 -380 -357 -498
-453 -128 -103 -330 -274 -363 -307 -34 -33 -189 -162 -314 -260 -87 -68 -145
-114 -270 -217 -37 -31 -92 -74 -122 -95 -30 -22 -86 -67 -125 -100 -38 -33
-83 -69 -99 -79 -15 -10 -54 -41 -85 -70 -32 -28 -75 -64 -96 -81 -61 -46
-175 -145 -225 -195 -58 -57 -166 -155 -268 -245 -83 -72 -116 -113 -66 -80
75 49 181 133 239 190 101 99 276 256 339 305 11 8 40 33 65 56 25 22 80 66
121 97 41 31 95 73 120 93 25 19 58 45 73 57 16 12 61 48 100 81 40 32 83 66
97 75 14 9 53 38 86 66 34 27 90 73 125 100 35 28 77 63 94 78 16 16 46 41 65
55 19 15 108 91 197 169 89 79 166 143 171 143 6 0 12 4 14 9 2 4 48 46 103
91 106 88 370 325 445 400 25 25 104 113 177 195 136 156 150 171 211 244 58
69 136 148 152 154 13 5 12 8 -4 21 -11 9 -25 16 -32 16 -7 0 -38 -36 -68 -80z"/>
<path d="M4919 23500 c-62 -60 -110 -113 -106 -117 8 -7 26 9 158 141 60 59
80 86 65 86 -3 0 -55 -49 -117 -110z"/>
<path d="M4752 23320 c-7 -11 -8 -20 -2 -20 5 0 14 9 20 20 6 11 7 20 3 20 -5
0 -14 -9 -21 -20z"/>
<path d="M9417 23138 c-9 -12 -19 -40 -22 -60 -6 -32 -4 -38 10 -38 17 0 75
52 75 67 0 5 -11 20 -24 32 l-24 23 -15 -24z"/>
<path d="M10510 22976 c0 -8 -24 -26 -54 -40 -29 -14 -77 -44 -106 -67 -29
-23 -78 -50 -109 -61 -31 -11 -81 -32 -111 -47 -30 -16 -66 -31 -80 -35 -14
-4 -56 -23 -95 -41 -38 -19 -113 -52 -165 -75 -52 -23 -102 -46 -110 -51 -8
-5 -24 -13 -35 -18 -11 -5 -67 -31 -125 -59 -58 -27 -134 -62 -170 -77 -36
-15 -99 -43 -140 -62 -41 -19 -84 -38 -95 -43 -29 -13 -423 -204 -545 -264
-187 -93 -356 -187 -420 -233 -14 -10 -72 -48 -130 -85 -58 -37 -109 -71 -115
-76 -5 -4 -39 -28 -75 -52 -36 -25 -67 -48 -70 -51 -3 -3 -36 -26 -75 -52 -38
-25 -86 -58 -105 -72 -19 -14 -63 -46 -97 -70 -131 -93 -368 -345 -473 -500
-29 -44 -81 -113 -114 -154 -34 -40 -78 -98 -99 -130 -22 -31 -56 -76 -76
-101 -87 -105 -324 -415 -386 -506 -37 -53 -72 -102 -77 -108 -5 -6 -29 -42
-54 -81 -70 -111 -51 -119 22 -9 36 55 76 110 88 124 13 14 37 48 54 75 17 28
39 59 49 70 181 199 394 466 596 750 179 251 341 427 527 572 65 51 574 393
584 393 3 0 27 15 53 34 43 30 287 166 299 166 2 0 44 19 92 41 78 37 148 69
462 209 47 21 150 70 230 110 80 40 197 97 260 127 63 30 223 108 355 173 233
115 350 160 412 160 25 0 33 -6 43 -30 17 -40 34 -33 41 17 3 27 20 60 48 96
23 31 46 57 49 59 4 2 22 22 40 46 24 30 29 42 17 42 -8 0 -15 -6 -15 -14z"/>
<path d="M4372 22908 c-17 -13 -48 -36 -70 -53 -22 -16 -49 -36 -60 -44 -25
-17 -66 -71 -55 -71 4 0 25 16 46 35 21 19 43 35 48 35 5 0 29 18 52 40 23 21
53 48 67 59 34 28 10 26 -28 -1z"/>
<path d="M19961 21664 c0 -11 3 -14 6 -6 3 7 2 16 -1 19 -3 4 -6 -2 -5 -13z"/>
<path d="M6539 20421 c-32 -32 -59 -64 -59 -71 0 -7 -7 -23 -17 -34 -9 -12 16
13 55 54 70 73 99 110 86 110 -3 0 -32 -26 -65 -59z"/>
<path d="M6383 20235 c-41 -42 -53 -61 -35 -53 14 6 95 98 86 98 -5 -1 -28
-21 -51 -45z"/>
<path d="M25620 19811 c0 -12 41 -24 65 -19 33 6 19 23 -22 26 -25 2 -43 -1
-43 -7z"/>
<path d="M5830 19650 c-8 -5 -11 -12 -7 -16 4 -4 13 -2 19 4 15 15 7 24 -12
12z"/>
<path d="M6113 19618 c-25 -28 -46 -68 -40 -75 6 -5 67 75 67 89 0 12 -5 10
-27 -14z"/>
<path d="M5853 19504 c-35 -54 -30 -70 12 -37 38 30 44 43 20 43 -9 0 -12 6
-9 15 10 25 0 16 -23 -21z"/>
<path d="M6025 19479 c-4 -6 -5 -12 -2 -15 2 -3 7 2 10 11 7 17 1 20 -8 4z"/>
<path d="M5685 19239 c-4 -6 -5 -12 -2 -15 2 -3 7 2 10 11 7 17 1 20 -8 4z"/>
<path d="M5622 19168 c-18 -23 -32 -48 -32 -55 0 -8 -29 -59 -65 -114 -36 -55
-65 -105 -65 -112 1 -19 56 51 101 128 64 107 109 186 109 191 0 14 -20 -2
-48 -38z"/>
<path d="M5480 19108 c-25 -52 -27 -76 -5 -58 8 7 15 23 15 35 0 12 7 28 15
35 17 14 20 30 5 30 -5 0 -19 -19 -30 -42z"/>
<path d="M21693 18886 c-15 -25 -50 -84 -78 -131 -27 -48 -57 -98 -66 -113
-18 -31 -99 -181 -172 -322 -52 -98 -137 -255 -177 -325 -13 -22 -32 -58 -43
-80 -11 -22 -35 -62 -53 -90 -19 -27 -34 -53 -34 -57 0 -22 21 0 65 69 28 42
71 109 98 149 26 39 47 75 47 80 0 4 6 15 14 23 16 20 67 113 164 301 40 80
78 150 82 155 5 6 29 49 53 95 24 47 61 116 81 155 48 89 67 135 56 135 -4 0
-21 -20 -37 -44z"/>
<path d="M5300 18661 c-17 -33 -11 -48 10 -22 11 13 20 27 20 32 0 16 -19 9
-30 -10z"/>
<path d="M5270 18590 c0 -5 5 -10 10 -10 6 0 10 5 10 10 0 6 -4 10 -10 10 -5
0 -10 -4 -10 -10z"/>
<path d="M5152 18258 c-6 -7 -15 -40 -21 -72 -6 -33 -17 -66 -23 -75 -24 -30
-35 -57 -52 -126 -10 -39 -24 -80 -32 -93 -9 -13 -14 -33 -12 -45 4 -31 50 64
79 163 11 41 32 99 45 127 23 50 42 133 32 133 -3 0 -10 -6 -16 -12z"/>
<path d="M21670 18029 c0 -5 51 -61 113 -122 111 -110 298 -255 340 -264 26
-5 29 -8 -81 75 -114 85 -256 209 -305 266 -46 54 -67 68 -67 45z"/>
<path d="M37677 17914 c-14 -14 6 -24 46 -24 39 1 41 2 23 15 -20 15 -58 20
-69 9z"/>
<path d="M4987 17784 c-4 -4 -7 -17 -7 -28 1 -19 1 -20 11 -3 11 19 8 43 -4
31z"/>
<path d="M22235 17570 c3 -5 11 -10 16 -10 6 0 7 5 4 10 -3 6 -11 10 -16 10
-6 0 -7 -4 -4 -10z"/>
<path d="M26005 17510 c-13 -5 -14 -9 -5 -9 8 0 24 4 35 9 13 5 14 9 5 9 -8 0
-24 -4 -35 -9z"/>
<path d="M25835 17440 c-55 -26 -116 -63 -135 -80 l-35 -32 35 20 c54 31 212
109 238 116 23 8 31 26 10 26 -7 0 -58 -23 -113 -50z"/>
<path d="M18208 17124 c-4 -6 -12 -41 -18 -78 -10 -67 -10 -67 21 -111 33 -47
59 -50 59 -9 0 19 -7 26 -30 31 -31 6 -36 16 -21 55 9 26 0 129 -11 112z"/>
<path d="M406 16732 c-8 -25 2 -52 20 -52 11 0 13 7 8 28 -9 37 -21 48 -28 24z"/>
<path d="M19140 16690 c0 -5 5 -10 11 -10 5 0 7 5 4 10 -3 6 -8 10 -11 10 -2
0 -4 -4 -4 -10z"/>
<path d="M19209 16612 c12 -23 41 -48 41 -35 0 5 -7 19 -16 31 -19 27 -39 30
-25 4z"/>
<path d="M18200 14797 c0 -22 122 -162 170 -194 70 -48 198 -125 275 -167 67
-37 264 -154 344 -206 22 -14 68 -43 103 -64 34 -22 160 -103 278 -181 272
-179 450 -295 568 -371 51 -32 138 -89 194 -126 57 -37 105 -64 108 -61 14 14
-387 326 -615 479 -27 18 -68 46 -90 62 -34 23 -201 137 -530 359 -68 47 -159
103 -395 246 -220 133 -350 218 -350 228 0 5 -13 9 -30 9 -18 0 -30 -5 -30
-13z"/>
<path d="M23805 13810 c3 -5 10 -10 15 -10 5 0 21 -11 35 -24 14 -13 65 -50
113 -81 48 -32 100 -67 116 -78 45 -31 202 -107 222 -107 28 0 -32 57 -75 71
-38 12 -149 76 -266 151 -121 78 -177 106 -160 78z"/>
<path d="M3575 13771 c-16 -5 -64 -14 -105 -21 -41 -7 -102 -19 -135 -26 -209
-44 -355 -76 -441 -98 -143 -36 -444 -109 -624 -151 -322 -75 -507 -117 -565
-130 -33 -8 -107 -25 -165 -39 -58 -14 -141 -33 -185 -42 -44 -9 -96 -20 -115
-24 -19 -4 -98 -22 -175 -39 -77 -16 -230 -52 -340 -80 -110 -27 -231 -57
-270 -66 -113 -28 -135 -40 -135 -74 0 -52 15 -54 162 -31 235 37 219 33 808
190 186 49 428 109 530 132 52 11 111 24 130 28 69 16 323 71 463 100 78 17
169 37 202 45 226 53 329 79 390 96 39 11 86 24 105 29 80 22 450 109 512 120
70 13 102 35 96 67 -3 14 -14 18 -58 20 -30 1 -68 -2 -85 -6z"/>
<path d="M24590 13576 c0 -6 92 -66 102 -66 11 0 -5 16 -46 48 -25 19 -56 29
-56 18z"/>
<path d="M24729 13490 c21 -18 61 -28 61 -15 0 7 -57 35 -72 35 -7 -1 -3 -9
11 -20z"/>
<path d="M20242 13224 c4 -23 53 -58 68 -49 8 5 3 16 -16 36 -31 32 -57 38
-52 13z"/>
<path d="M3215 12693 c-80 -9 -269 -84 -487 -194 -222 -112 -233 -119 -231
-144 3 -38 11 -42 29 -17 8 12 21 22 29 22 8 0 29 9 47 20 19 11 44 21 57 23
12 2 26 8 29 14 4 6 65 40 137 77 94 48 140 66 168 66 33 0 38 2 28 14 -10 12
0 19 66 39 132 41 149 42 168 10 9 -15 37 -44 62 -63 25 -19 51 -41 58 -47 24
-23 40 -14 18 10 -12 12 -29 38 -40 57 -25 49 -64 96 -88 107 -11 5 -33 7 -50
6z"/>
<path d="M21360 12576 c0 -19 46 -52 145 -106 44 -24 125 -70 180 -103 55 -32
127 -75 160 -94 33 -20 76 -46 95 -58 267 -173 266 -172 655 -402 94 -55 249
-147 345 -204 175 -103 299 -169 319 -169 20 0 11 15 -21 35 -17 11 -65 43
-107 71 -42 28 -137 86 -211 129 -74 42 -155 90 -180 105 -25 15 -112 67 -195
115 -149 87 -319 191 -570 350 -158 100 -233 145 -241 145 -3 0 -18 9 -33 19
-67 48 -315 181 -337 181 -2 0 -4 -7 -4 -14z"/>
<path d="M22710 12226 c0 -2 7 -7 16 -10 8 -3 12 -2 9 4 -6 10 -25 14 -25 6z"/>
<path d="M22820 12163 c0 -10 117 -83 133 -83 19 0 -13 25 -75 59 -32 17 -58
28 -58 24z"/>
<path d="M22985 12060 c10 -11 22 -20 28 -20 5 0 21 -8 35 -19 37 -26 290
-171 298 -171 4 0 22 -11 40 -25 18 -14 35 -25 39 -25 3 0 63 -38 133 -84 70
-46 143 -91 162 -101 19 -10 46 -26 60 -35 14 -9 57 -36 95 -60 39 -24 93 -57
120 -75 28 -18 131 -78 230 -134 99 -56 218 -126 265 -155 47 -29 128 -78 180
-110 52 -32 111 -68 130 -81 19 -12 114 -71 210 -130 96 -59 272 -172 390
-249 265 -175 252 -167 440 -267 85 -45 184 -99 220 -119 36 -20 110 -55 165
-79 55 -24 125 -56 155 -71 30 -16 65 -31 76 -34 12 -4 30 -16 40 -27 17 -19
17 -20 -2 -38 -10 -10 -50 -28 -89 -41 -38 -12 -99 -37 -135 -56 -36 -18 -85
-36 -108 -40 -24 -4 -56 -17 -70 -29 -15 -11 -48 -29 -74 -39 -41 -15 -83 -46
-63 -46 5 0 72 26 149 59 78 32 157 64 176 71 104 37 199 72 225 85 38 17 281
95 298 95 7 0 30 9 51 19 21 11 61 25 89 31 48 10 149 40 372 110 274 86 574
166 785 210 58 12 157 35 220 50 156 38 399 94 650 150 52 11 118 27 146 35
28 8 67 15 87 15 20 0 59 5 87 11 42 9 54 8 68 -4 9 -8 33 -19 52 -25 61 -19
283 -32 297 -18 11 10 -35 43 -72 51 -105 21 -142 24 -178 13 -32 -10 -44 -9
-71 6 -25 13 -41 15 -72 8 -21 -5 -56 -7 -76 -4 -32 3 -119 -13 -398 -73 -36
-8 -130 -30 -210 -49 -80 -18 -163 -37 -185 -41 -22 -3 -92 -19 -155 -34 -63
-15 -142 -34 -175 -41 -122 -26 -414 -103 -530 -140 -179 -57 -366 -115 -498
-155 -65 -19 -127 -40 -138 -46 -11 -6 -47 -12 -79 -14 -32 -2 -75 -12 -96
-23 -70 -34 -178 -63 -225 -60 -43 3 -44 4 -47 41 -3 32 -7 37 -28 37 -44 0
-292 108 -534 232 -129 67 -249 131 -265 144 -17 12 -41 27 -55 33 -14 6 -47
27 -75 46 -101 71 -144 99 -327 218 -356 231 -725 457 -746 457 -5 0 -27 13
-48 28 -21 15 -57 37 -79 48 -22 12 -83 45 -135 76 -52 30 -106 61 -120 69
-29 16 -124 76 -225 141 -123 80 -185 118 -190 118 -3 0 -29 15 -58 33 -97 63
-262 160 -332 197 -38 20 -88 48 -109 63 -21 15 -42 27 -47 27 -4 0 -38 18
-77 40 -77 45 -94 50 -67 20z"/>
<path d="M27104 12015 c11 -8 27 -15 35 -15 13 1 12 4 -3 15 -11 8 -27 15 -35
15 -13 -1 -12 -4 3 -15z"/>
<path d="M27380 11860 c23 -18 50 -26 50 -15 0 6 -56 35 -67 35 -4 0 3 -9 17
-20z"/>
<path d="M27465 11810 c3 -5 8 -10 11 -10 2 0 4 5 4 10 0 6 -5 10 -11 10 -5 0
-7 -4 -4 -10z"/>
<path d="M27514 11775 c11 -8 25 -15 30 -15 6 0 2 7 -8 15 -11 8 -25 15 -30
15 -6 0 -2 -7 8 -15z"/>
<path d="M27620 11713 c0 -10 40 -36 46 -30 3 2 -7 12 -21 21 -14 9 -25 13
-25 9z"/>
<path d="M27710 11656 c0 -2 7 -7 16 -10 8 -3 12 -2 9 4 -6 10 -25 14 -25 6z"/>
<path d="M27775 11615 c17 -14 34 -25 39 -25 6 0 21 -11 35 -24 15 -13 40 -32
58 -43 80 -46 182 -109 224 -139 25 -17 94 -57 155 -89 60 -32 121 -66 136
-76 14 -11 30 -19 34 -19 4 0 39 -20 78 -44 39 -23 91 -54 116 -67 42 -23 257
-164 320 -210 15 -12 33 -20 38 -18 16 6 -41 64 -105 108 -94 63 -236 151
-246 151 -5 0 -21 8 -35 19 -27 19 -119 70 -286 159 -89 47 -192 108 -409 240
-64 40 -121 72 -126 72 -5 0 -14 7 -21 15 -7 8 -18 15 -24 15 -6 -1 3 -12 19
-25z"/>
<path d="M0 11482 c0 -52 1 -55 60 -114 34 -33 94 -101 135 -152 148 -180 201
-245 245 -302 42 -55 148 -178 201 -234 24 -26 134 -155 186 -219 16 -19 39
-51 53 -71 35 -51 132 -160 143 -160 11 0 15 -6 -122 176 -58 77 -119 157
-135 180 -17 22 -52 65 -77 95 -106 123 -179 212 -266 325 -51 65 -102 130
-115 144 -13 14 -54 63 -93 110 -38 47 -73 87 -76 90 -13 10 -79 100 -79 108
0 4 -13 23 -30 42 l-29 35 -1 -53z"/>
<path d="M19770 11044 c0 -19 40 -74 55 -74 23 0 18 13 -20 50 -19 19 -35 30
-35 24z"/>
<path d="M19912 10999 c-23 -22 -40 -44 -37 -50 4 -5 30 -6 60 -3 37 5 59 3
70 -6 8 -6 30 -16 50 -20 45 -10 49 12 5 30 -16 7 -32 21 -35 31 -6 18 -51 59
-64 59 -3 0 -25 -19 -49 -41z"/>
<path d="M29848 10913 c12 -2 32 -2 45 0 12 2 2 4 -23 4 -25 0 -35 -2 -22 -4z"/>
<path d="M29958 10913 c7 -3 16 -2 19 1 4 3 -2 6 -13 5 -11 0 -14 -3 -6 -6z"/>
<path d="M30124 10895 c11 -8 35 -15 53 -15 28 0 177 -23 353 -56 135 -24 312
-133 475 -292 38 -38 120 -111 180 -163 61 -51 146 -131 190 -175 72 -74 136
-124 158 -124 13 0 -12 28 -154 169 -166 166 -390 379 -444 422 -149 117 -299
187 -460 212 -121 19 -287 37 -335 37 -33 -1 -34 -1 -16 -15z"/>
<path d="M29091 10814 c16 -20 69 -47 77 -40 3 3 0 17 -6 31 -9 20 -19 25 -48
25 -32 0 -35 -2 -23 -16z"/>
<path d="M5560 10780 c0 -17 50 -124 62 -131 6 -4 16 -5 22 -3 6 2 16 -6 21
-18 13 -28 31 -34 39 -12 8 22 -14 56 -80 122 -53 53 -64 60 -64 42z"/>
<path d="M29582 10691 c4 -13 18 -16 19 -4 0 4 -5 9 -11 12 -7 2 -11 -2 -8 -8z"/>
<path d="M29865 10639 c-22 -4 -60 -15 -85 -23 l-45 -15 44 0 c24 -1 115 -8
201 -17 87 -8 176 -14 197 -12 l38 4 -29 12 c-17 7 -80 22 -141 32 -61 10
-117 21 -125 23 -8 3 -33 1 -55 -4z"/>
<path d="M21992 10143 c4 -19 30 -28 55 -19 23 9 -3 36 -34 36 -18 0 -24 -5
-21 -17z"/>
<path d="M26510 10105 c-7 -9 -10 -18 -7 -21 10 -11 37 5 37 21 0 19 -14 19
-30 0z"/>
<path d="M25680 9981 c0 -7 20 -20 44 -31 24 -10 62 -30 85 -44 22 -14 49 -26
58 -25 10 0 -3 11 -28 23 -25 12 -61 34 -78 49 -18 15 -36 27 -41 27 -5 0 -15
3 -24 6 -9 3 -16 1 -16 -5z"/>
<path d="M25945 9899 c-4 -5 -19 -15 -33 -20 -26 -10 -26 -11 -8 -25 11 -8 27
-14 36 -14 23 0 54 36 47 55 -7 17 -33 20 -42 4z"/>
<path d="M22021 9723 c92 -111 401 -338 722 -527 18 -10 69 -41 115 -68 181
-107 462 -237 462 -214 0 3 -21 16 -47 29 -233 118 -668 378 -891 533 -78 54
-160 110 -181 123 -21 13 -51 35 -67 50 -73 67 -146 115 -113 74z"/>
<path d="M1399 9711 c-36 -30 -16 -56 42 -56 50 0 63 22 33 56 -22 24 -45 24
-75 0z"/>
<path d="M25880 9670 c-9 -6 -10 -10 -3 -10 6 0 15 5 18 10 8 12 4 12 -15 0z"/>
<path d="M25775 9635 c-23 -10 -25 -13 -10 -14 11 0 31 6 45 14 32 18 5 19
-35 0z"/>
<path d="M25535 9569 c-302 -87 -950 -297 -1375 -445 -211 -73 -545 -219 -652
-285 -53 -32 -100 -59 -105 -59 -4 0 -26 -12 -48 -25 l-40 -25 35 6 c61 10
102 25 215 79 455 215 602 272 1470 565 160 54 331 110 380 125 105 32 283 93
305 106 31 17 -15 7 -185 -42z"/>
<path d="M22392 8938 c2 -15 14 -25 38 -32 20 -6 47 -19 60 -29 75 -53 166
-108 208 -123 54 -21 76 -32 115 -58 28 -19 45 -17 32 4 -3 6 -43 29 -88 51
-45 23 -104 57 -131 77 -73 54 -205 132 -222 132 -10 0 -14 -8 -12 -22z"/>
<path d="M21133 8293 c-7 -2 -13 -11 -13 -19 0 -11 16 -14 65 -14 65 0 75 6
53 28 -12 12 -81 15 -105 5z"/>
<path d="M20921 8278 c0 -21 53 -57 100 -67 36 -8 47 -7 61 6 27 24 23 28 -27
31 -25 1 -55 8 -68 16 -36 23 -67 29 -66 14z"/>
<path d="M32920 6940 c0 -73 3 -131 6 -127 7 7 6 249 -1 256 -3 2 -5 -56 -5
-129z"/>
<path d="M6280 6540 c0 -11 7 -20 15 -20 17 0 18 2 9 24 -9 23 -24 20 -24 -4z"/>
<path d="M39345 5891 c33 -23 65 -41 70 -41 6 0 27 -12 48 -26 21 -14 95 -58
165 -98 70 -40 161 -93 202 -119 75 -47 140 -73 140 -57 0 4 -33 27 -72 49
-40 23 -95 56 -123 73 -27 17 -79 48 -115 68 -36 20 -103 61 -150 90 -90 56
-146 83 -195 95 -24 5 -18 -1 30 -34z"/>
<path d="M35200 5733 c0 -17 71 -86 154 -149 110 -82 549 -314 1049 -553 151
-72 237 -97 237 -68 0 15 -243 139 -505 257 -27 13 -171 83 -320 156 -287 141
-419 220 -527 315 -69 62 -88 71 -88 42z"/>
<path d="M5920 5155 c5 -16 14 -48 21 -70 7 -22 28 -80 47 -130 32 -85 48
-113 143 -257 20 -32 39 -63 42 -70 2 -7 8 -10 12 -6 8 8 10 5 -50 113 -25 44
-54 100 -66 125 -11 25 -40 86 -63 135 -24 50 -46 102 -49 116 -4 15 -16 37
-27 50 l-19 24 9 -30z"/>
<path d="M2400 5029 c0 -14 73 -149 110 -204 15 -22 54 -80 85 -130 190 -294
521 -793 608 -915 34 -47 129 -172 212 -278 82 -107 159 -206 170 -221 11 -15
47 -60 80 -100 33 -40 76 -95 95 -122 173 -238 183 -252 331 -469 25 -36 69
-108 98 -160 50 -88 77 -130 218 -341 28 -42 108 -135 177 -207 70 -71 149
-158 176 -193 136 -175 401 -558 450 -649 7 -14 41 -68 75 -120 239 -364 419
-693 486 -882 l13 -38 74 0 c72 0 73 1 66 23 -4 12 -17 36 -29 52 -12 17 -35
53 -50 80 -29 53 -41 74 -175 300 -81 136 -184 297 -280 440 -26 39 -49 75
-51 80 -3 9 -147 224 -282 423 -23 34 -78 111 -121 170 -43 59 -99 139 -124
177 -25 39 -71 106 -103 150 -57 80 -120 188 -187 320 -18 37 -191 359 -222
415 -38 67 -182 290 -273 422 -17 26 -45 70 -62 97 -16 28 -33 51 -37 51 -13
0 -9 -10 25 -58 17 -26 41 -65 53 -87 11 -22 71 -121 133 -220 123 -198 219
-386 251 -491 12 -38 28 -90 36 -116 9 -26 13 -52 9 -58 -14 -22 -116 105
-202 250 -48 80 -109 177 -135 215 -27 39 -84 122 -127 185 -116 172 -167 246
-229 329 -80 109 -114 156 -140 193 -12 18 -56 78 -98 133 -41 55 -100 138
-131 185 -31 47 -82 119 -114 160 -31 41 -65 89 -75 106 -11 17 -28 44 -38 60
-11 16 -76 114 -145 217 -69 104 -133 198 -141 211 -8 12 -24 37 -35 55 -11
18 -29 45 -41 60 -12 14 -50 69 -85 121 -36 52 -91 132 -124 177 -33 44 -80
111 -105 147 -41 60 -70 83 -70 55z"/>
<path d="M5613 4845 c16 -30 57 -72 57 -57 0 5 -16 26 -36 48 -33 36 -35 37
-21 9z"/>
<path d="M37074 4735 c11 -8 25 -15 30 -15 6 0 2 7 -8 15 -11 8 -25 15 -30 15
-6 0 -2 -7 8 -15z"/>
<path d="M37280 4622 c47 -26 101 -54 120 -62 19 -8 37 -17 40 -20 9 -12 90
-54 94 -49 12 11 -300 179 -332 179 -4 0 31 -22 78 -48z"/>
<path d="M6190 4603 c0 -5 7 -18 15 -29 12 -16 14 -16 15 -3 0 9 -7 22 -15 29
-8 7 -15 8 -15 3z"/>
<path d="M37600 4456 c0 -8 73 -56 84 -56 13 0 -1 12 -46 39 -21 13 -38 20
-38 17z"/>
<path d="M37700 4392 c0 -14 144 -105 345 -218 66 -37 161 -91 210 -119 88
-51 283 -157 435 -238 41 -21 91 -49 110 -62 19 -12 100 -58 180 -102 80 -44
186 -104 235 -133 138 -81 245 -139 430 -235 94 -48 175 -91 180 -95 6 -4 159
-83 340 -175 344 -175 447 -230 504 -271 38 -27 61 -31 61 -9 0 63 -93 123
-495 322 -238 117 -686 346 -820 418 -33 18 -118 63 -190 100 -71 37 -165 87
-207 111 -114 65 -361 200 -458 252 -47 25 -121 65 -165 90 -44 25 -141 77
-215 117 -272 145 -293 156 -360 197 -58 35 -120 61 -120 50z"/>
<path d="M34470 4204 c0 -18 29 -50 88 -97 170 -135 247 -189 430 -303 34 -21
156 -101 270 -177 273 -182 467 -309 632 -414 340 -216 675 -426 780 -488 63
-38 158 -94 210 -125 134 -80 370 -202 515 -265 392 -171 633 -291 1005 -499
99 -56 398 -232 485 -286 33 -20 89 -53 125 -72 225 -121 578 -327 675 -393
126 -86 125 -86 125 -40 0 26 -9 49 -26 72 -28 37 -150 119 -254 172 -36 18
-94 50 -130 71 -68 39 -177 99 -295 160 -177 94 -232 123 -256 141 -15 10 -30
19 -33 19 -6 0 -61 31 -154 87 -21 12 -62 35 -92 52 -30 17 -73 42 -95 56 -22
14 -51 30 -65 37 -14 7 -53 29 -88 50 -34 21 -64 38 -67 38 -2 0 -44 24 -93
54 -114 70 -211 124 -462 259 -113 60 -284 153 -380 207 -96 53 -229 126 -295
160 -66 35 -172 91 -235 125 -63 34 -142 76 -175 92 -186 92 -852 480 -1095
638 -96 63 -284 176 -420 255 -41 24 -91 53 -110 65 -19 12 -53 33 -75 45 -34
20 -187 120 -259 170 -44 30 -121 96 -139 118 -17 20 -47 31 -47 16z"/>
<path d="M0 3621 c0 -61 3 -81 13 -81 12 0 158 -180 227 -280 14 -20 70 -92
125 -159 55 -68 109 -135 120 -150 51 -68 163 -201 300 -356 165 -188 207
-236 291 -340 31 -38 59 -72 63 -75 9 -7 167 -211 211 -272 349 -489 417 -599
793 -1298 22 -41 48 -86 57 -100 10 -14 42 -65 72 -115 81 -135 108 -178 170
-279 32 -50 58 -97 58 -103 0 -9 21 -13 70 -13 39 0 70 3 70 7 0 4 -11 18 -24
32 -26 28 -151 207 -195 280 -14 24 -46 71 -71 106 -25 34 -49 69 -55 77 -29
43 -52 78 -85 128 -41 61 -141 226 -187 310 -195 353 -430 727 -587 936 -34
44 -86 116 -116 159 -30 42 -110 145 -178 229 -67 83 -141 174 -163 201 -23
28 -96 111 -164 185 -126 139 -315 365 -343 410 -9 14 -28 39 -43 55 -28 31
-197 250 -237 307 -13 18 -43 60 -68 93 -24 33 -55 83 -69 111 -14 29 -32 57
-40 64 -13 11 -15 2 -15 -69z"/>
<path d="M29015 1870 c-14 -22 -34 -59 -45 -83 -18 -39 -80 -244 -95 -312 -3
-16 -10 -48 -15 -70 -81 -380 -83 -871 -4 -1290 20 -107 23 -115 40 -115 19 0
18 29 -5 147 -44 225 -60 586 -37 848 28 317 50 427 145 715 41 124 59 200 47
200 -3 0 -17 -18 -31 -40z"/>
<path d="M35760 1327 c0 -32 286 -299 435 -405 187 -134 497 -301 658 -356 27
-9 62 -23 78 -32 17 -8 38 -14 47 -12 9 2 -71 48 -178 102 -107 54 -222 116
-256 137 -34 22 -64 39 -67 39 -11 0 -235 155 -301 209 -38 31 -116 100 -173
153 -128 121 -243 199 -243 165z"/>
<path d="M39820 950 c0 -23 91 -97 171 -141 151 -82 224 -125 269 -156 25 -16
108 -67 185 -113 77 -46 219 -131 315 -190 96 -59 181 -110 188 -114 9 -5 12
8 12 56 l-1 63 -77 44 c-353 200 -906 481 -947 481 -4 0 -32 18 -62 40 -29 23
-53 36 -53 30z"/>
</g>
</svg>
